<?xml version="1.0" encoding="UTF-8" standalone="no"?>
<svg
   xmlns:dc="http://purl.org/dc/elements/1.1/"
   xmlns:cc="http://creativecommons.org/ns#"
   xmlns:rdf="http://www.w3.org/1999/02/22-rdf-syntax-ns#"
   xmlns:svg="http://www.w3.org/2000/svg"
   xmlns="http://www.w3.org/2000/svg"
   xmlns:xlink="http://www.w3.org/1999/xlink"
   xmlns:sodipodi="http://sodipodi.sourceforge.net/DTD/sodipodi-0.dtd"
   xmlns:inkscape="http://www.inkscape.org/namespaces/inkscape"
   id="svg8"
   version="1.1"
   viewBox="0 0 200.0 200.0"
   height="200.0mm"
   width="200.0mm"
   inkscape:version="1.0beta1 (32d4812, 2019-09-19)"
   sodipodi:docname="4_spring_plate.svg">
  <defs
     id="defs2">
    <inkscape:perspective
       sodipodi:type="inkscape:persp3d"
       inkscape:vp_x="0 : 100 : 1"
       inkscape:vp_y="0 : 1000 : 0"
       inkscape:vp_z="200 : 100 : 1"
       inkscape:persp3d-origin="100 : 66.666667 : 1"
       id="perspective2627" />
    <marker
       inkscape:stockid="Arrow2Mstart"
       orient="auto"
       refY="0"
       refX="0"
       id="marker7586"
       style="overflow:visible"
       inkscape:isstock="true">
      <path
         inkscape:connector-curvature="0"
         id="path7584"
         style="fill:#000000;fill-opacity:1;fill-rule:evenodd;stroke:#000000;stroke-width:0.625;stroke-linejoin:round;stroke-opacity:1"
         d="M 8.7185878,4.0337352 -2.2072895,0.01601326 8.7185884,-4.0017078 c -1.7454984,2.3720609 -1.7354408,5.6174519 -6e-7,8.035443 z"
         transform="scale(0.6)" />
    </marker>
    <marker
       inkscape:stockid="Arrow2Mend"
       orient="auto"
       refY="0"
       refX="0"
       id="marker7644"
       style="overflow:visible"
       inkscape:isstock="true">
      <path
         inkscape:connector-curvature="0"
         id="path7642"
         style="fill:#000000;fill-opacity:1;fill-rule:evenodd;stroke:#000000;stroke-width:0.625;stroke-linejoin:round;stroke-opacity:1"
         d="M 8.7185878,4.0337352 -2.2072895,0.01601326 8.7185884,-4.0017078 c -1.7454984,2.3720609 -1.7354408,5.6174519 -6e-7,8.035443 z"
         transform="scale(-0.6)" />
    </marker>
  </defs>
  <sodipodi:namedview
     id="base"
     pagecolor="#ffffff"
     bordercolor="#666666"
     borderopacity="1.0"
     inkscape:pageopacity="0.0"
     inkscape:pageshadow="2"
     inkscape:zoom="1.5610388"
     inkscape:cx="377.95302"
     inkscape:cy="215.86189"
     inkscape:document-units="mm"
     inkscape:current-layer="g832"
     showgrid="true"
     inkscape:window-width="1440"
     inkscape:window-height="855"
     inkscape:window-x="0"
     inkscape:window-y="23"
     inkscape:window-maximized="0"
     borderlayer="true"
     inkscape:snap-grids="false"
     inkscape:snap-bbox="true"
     inkscape:snap-bbox-midpoints="true"
     inkscape:snap-object-midpoints="true"
     inkscape:snap-bbox-edge-midpoints="true"
     inkscape:bbox-nodes="true"
     inkscape:object-paths="true"
     inkscape:snap-smooth-nodes="true"
     inkscape:document-rotation="0">
    <inkscape:grid
       id="grid1024"
       units="mm"
       type="xygrid"
       empspacing="1"
       spacingy="5"
       spacingx="5"
       dotted="false"
       originx="0"
       originy="0" />
  </sodipodi:namedview>
  <metadata
     id="metadata5">
    <rdf:RDF>
      <cc:Work
         rdf:about="">
        <dc:format>image/svg+xml</dc:format>
        <dc:type
           rdf:resource="http://purl.org/dc/dcmitype/StillImage" />
        <dc:title />
      </cc:Work>
    </rdf:RDF>
  </metadata>
  <g
     id="g822"
     sodipodi:insensitive="true"
     inkscape:groupmode="layer"
     inkscape:label="[fixed] BG"
     style="display:none">
    <rect
       id="rect820"
       style="fill:#ffffff;fill-opacity:1;stroke:none"
       height="100"
       width="100"
       y="0"
       x="0" />
  </g>
  <g
     id="g824"
     inkscape:groupmode="layer"
     inkscape:label="Edge.Cuts"
     style="display:inline">
    <path
       id="rect1148"
       style="opacity:1;fill:none;fill-rule:evenodd;stroke:#000000;stroke-width:0.377953;stroke-miterlimit:4;stroke-dasharray:none;stroke-opacity:1"
       d="M 37.794922,37.794922 V 188.97656 h 75.591798 v -16.0625 c 0,-1.57039 1.26359,-2.83593 2.83398,-2.83594 h 32.125 c 1.5704,0 2.83594,1.26555 2.83594,2.83594 v 16.0625 h 37.79492 V 37.794922 Z"
       inkscape:connector-curvature="0"
       transform="scale(0.26458333)" />
    <circle
       style="opacity:1;fill:none;stroke:#000000;stroke-width:0.1;stroke-miterlimit:4;stroke-dasharray:none;stroke-opacity:1"
       id="path1723"
       cx="16.5"
       cy="16.5"
       r="1.5"
       inkscape:transform-center-x="3.8523926"
       inkscape:transform-center-y="-4.4687754" />
    <circle
       inkscape:transform-center-y="-4.4687754"
       inkscape:transform-center-x="3.8523926"
       r="1.5"
       cy="43.5"
       cx="16.5"
       id="path1723-1"
       style="display:inline;opacity:1;fill:none;stroke:#000000;stroke-width:0.1;stroke-miterlimit:4;stroke-dasharray:none;stroke-opacity:1" />
    <circle
       inkscape:transform-center-y="-4.4687754"
       inkscape:transform-center-x="3.8523926"
       r="1.5"
       cy="16.5"
       cx="43.5"
       id="path1723-7"
       style="display:inline;opacity:1;fill:none;stroke:#000000;stroke-width:0.1;stroke-miterlimit:4;stroke-dasharray:none;stroke-opacity:1" />
    <circle
       style="display:inline;opacity:1;fill:none;stroke:#000000;stroke-width:0.1;stroke-miterlimit:4;stroke-dasharray:none;stroke-opacity:1"
       id="path1723-1-3"
       cx="43.5"
       cy="43.5"
       r="1.5"
       inkscape:transform-center-x="3.8523926"
       inkscape:transform-center-y="-4.4687754" />
    <path
       d="m 20.750155,19.999812 c -0.4155,0 -0.750342,0.334842 -0.750342,0.750342 0,0.4155 0.334842,0.749825 0.750342,0.749825 H 35.99987 v 12.750127 c 0,0.415499 0.33484,0.749824 0.750342,0.749824 0.415499,0 0.749824,-0.334325 0.749824,-0.749824 V 20.750154 c 0,-0.4155 -0.334325,-0.750342 -0.749824,-0.750342 z m 18.499645,0 c -0.415499,0 -0.749824,0.334842 -0.749824,0.750342 V 35.99987 H 25.74985 c -0.4155,0 -0.749826,0.33484 -0.749826,0.750342 0,0.415499 0.334326,0.749824 0.749826,0.749824 H 39.2498 c 0.05194,0 0.103018,-0.005 0.151929,-0.01497 0.342378,-0.06971 0.598413,-0.371277 0.598413,-0.734838 V 20.750154 c 0,-0.4155 -0.334841,-0.750342 -0.750342,-0.750342 z m -18.499645,2.500106 c -0.05194,0 -0.103018,0.005 -0.151929,0.01499 -0.342378,0.06971 -0.598413,0.371278 -0.598413,0.734839 v 16.000057 c 0,0.415501 0.334841,0.750342 0.750342,0.750342 0.415499,0 0.749825,-0.334841 0.749825,-0.750342 V 24.000085 h 12.750126 c 0.415499,0 0.749824,-0.33484 0.749824,-0.750342 0,-0.415499 -0.334325,-0.749825 -0.749824,-0.749825 z m 2.499589,2.500106 c -0.415499,0 -0.749825,0.334326 -0.749825,0.749825 V 39.2498 c 0,0.415501 0.334326,0.750342 0.749825,0.750342 H 39.2498 c 0.415499,0 0.750342,-0.334841 0.750342,-0.750342 0,-0.415499 -0.334843,-0.749824 -0.750342,-0.749824 H 24.000085 V 25.749849 c 0,-0.415499 -0.334839,-0.749825 -0.750341,-0.749825 z"
       style="display:inline;opacity:1;fill:none;stroke:#000000;stroke-width:0.1;stroke-linejoin:round;stroke-miterlimit:4;stroke-dasharray:none;stroke-opacity:1"
       id="rect1796-3"
       inkscape:connector-curvature="0" />
    <circle
       style="display:inline;opacity:1;fill:none;stroke:#000000;stroke-width:0.1;stroke-miterlimit:4;stroke-dasharray:none;stroke-opacity:1"
       id="path1723-1-6"
       cx="27.5"
       cy="72.5"
       inkscape:transform-center-x="5.1365235"
       inkscape:transform-center-y="-5.9583672"
       r="1" />
    <path
       inkscape:connector-curvature="0"
       d="m 55,10 v 40.000141 h 20.00033 v -4.24987 c 0,-0.415499 0.334325,-0.75034 0.749824,-0.750343 h 8.499738 c 0.415502,0 0.750343,0.334844 0.750343,0.750343 v 4.24987 h 9.999906 V 10 Z"
       style="display:inline;opacity:1;fill:none;fill-rule:evenodd;stroke:#000000;stroke-width:0.1;stroke-miterlimit:4;stroke-dasharray:none;stroke-opacity:1"
       id="rect1148-3" />
    <circle
       inkscape:transform-center-y="-4.4687754"
       inkscape:transform-center-x="3.8523926"
       r="1.5"
       cy="16.500093"
       cx="61.500092"
       id="path1723-3"
       style="display:inline;opacity:1;fill:none;stroke:#000000;stroke-width:0.1;stroke-miterlimit:4;stroke-dasharray:none;stroke-opacity:1" />
    <circle
       style="display:inline;opacity:1;fill:none;stroke:#000000;stroke-width:0.1;stroke-miterlimit:4;stroke-dasharray:none;stroke-opacity:1"
       id="path1723-1-0"
       cx="61.500092"
       cy="43.500088"
       r="1.5"
       inkscape:transform-center-x="3.8523926"
       inkscape:transform-center-y="-4.4687754" />
    <circle
       style="display:inline;opacity:1;fill:none;stroke:#000000;stroke-width:0.1;stroke-miterlimit:4;stroke-dasharray:none;stroke-opacity:1"
       id="path1723-7-6"
       cx="88.500092"
       cy="16.500093"
       r="1.5"
       inkscape:transform-center-x="3.8523926"
       inkscape:transform-center-y="-4.4687754" />
    <circle
       inkscape:transform-center-y="-4.4687754"
       inkscape:transform-center-x="3.8523926"
       r="1.5"
       cy="43.500088"
       cx="88.500092"
       id="path1723-1-3-9"
       style="display:inline;opacity:1;fill:none;stroke:#000000;stroke-width:0.1;stroke-miterlimit:4;stroke-dasharray:none;stroke-opacity:1" />
    <use
       x="0"
       y="0"
       xlink:href="#rect1148"
       id="use2459"
       transform="translate(9.368015e-5,45.000094)"
       width="100%"
       height="100%"
       style="stroke-width:0.1;stroke-miterlimit:4;stroke-dasharray:none" />
    <use
       x="0"
       y="0"
       xlink:href="#path1723"
       inkscape:transform-center-x="3.8523926"
       inkscape:transform-center-y="-4.4687754"
       id="use2461"
       transform="translate(9.368015e-5,45.000094)"
       width="100%"
       height="100%"
       style="stroke-width:0.1;stroke-miterlimit:4;stroke-dasharray:none" />
    <use
       x="0"
       y="0"
       xlink:href="#path1723-1"
       inkscape:transform-center-x="3.8523926"
       inkscape:transform-center-y="-4.4687754"
       id="use2463"
       transform="translate(9.368015e-5,45.000094)"
       width="100%"
       height="100%"
       style="stroke-width:0.1;stroke-miterlimit:4;stroke-dasharray:none" />
    <use
       x="0"
       y="0"
       xlink:href="#path1723-7"
       inkscape:transform-center-x="3.8523926"
       inkscape:transform-center-y="-4.4687754"
       id="use2465"
       transform="translate(9.368015e-5,45.000094)"
       width="100%"
       height="100%"
       style="stroke-width:0.1;stroke-miterlimit:4;stroke-dasharray:none" />
    <use
       x="0"
       y="0"
       xlink:href="#path1723-1-3"
       inkscape:transform-center-x="3.8523926"
       inkscape:transform-center-y="-4.4687754"
       id="use2467"
       transform="translate(9.368015e-5,45.000094)"
       width="100%"
       height="100%"
       style="stroke-width:0.1;stroke-miterlimit:4;stroke-dasharray:none" />
    <use
       x="0"
       y="0"
       xlink:href="#rect1796-3"
       id="use2469"
       transform="translate(9.368015e-5,45.000094)"
       width="100%"
       height="100%"
       style="stroke-width:0.1;stroke-miterlimit:4;stroke-dasharray:none" />
    <use
       x="0"
       y="0"
       xlink:href="#rect1148-3"
       id="use2471"
       transform="translate(9.368015e-5,45.000094)"
       width="100%"
       height="100%"
       style="stroke-width:0.1;stroke-miterlimit:4;stroke-dasharray:none" />
    <use
       x="0"
       y="0"
       xlink:href="#path1723-3"
       inkscape:transform-center-x="3.8523926"
       inkscape:transform-center-y="-4.4687754"
       id="use2473"
       transform="translate(9.368015e-5,45.000094)"
       width="100%"
       height="100%"
       style="stroke-width:0.1;stroke-miterlimit:4;stroke-dasharray:none" />
    <use
       x="0"
       y="0"
       xlink:href="#path1723-1-0"
       inkscape:transform-center-x="3.8523926"
       inkscape:transform-center-y="-4.4687754"
       id="use2475"
       transform="translate(9.368015e-5,45.000094)"
       width="100%"
       height="100%"
       style="stroke-width:0.1;stroke-miterlimit:4;stroke-dasharray:none" />
    <use
       x="0"
       y="0"
       xlink:href="#path1723-7-6"
       inkscape:transform-center-x="3.8523926"
       inkscape:transform-center-y="-4.4687754"
       id="use2477"
       transform="translate(9.368015e-5,45.000094)"
       width="100%"
       height="100%"
       style="stroke-width:0.1;stroke-miterlimit:4;stroke-dasharray:none" />
    <use
       x="0"
       y="0"
       xlink:href="#path1723-1-3-9"
       inkscape:transform-center-x="3.8523926"
       inkscape:transform-center-y="-4.4687754"
       id="use2479"
       transform="translate(9.368015e-5,45.000094)"
       width="100%"
       height="100%"
       style="stroke-width:0.1;stroke-miterlimit:4;stroke-dasharray:none" />
    <circle
       r="1"
       inkscape:transform-center-y="-5.9583672"
       inkscape:transform-center-x="5.1365235"
       cy="72.5"
       cx="32.5"
       id="path1723-1-6-5"
       style="display:inline;opacity:1;fill:none;stroke:#000000;stroke-width:0.1;stroke-miterlimit:4;stroke-dasharray:none;stroke-opacity:1" />
    <circle
       r="1"
       inkscape:transform-center-y="-5.9583672"
       inkscape:transform-center-x="5.1365235"
       cy="77.5"
       cx="27.5"
       id="path1723-1-6-8"
       style="display:inline;opacity:1;fill:none;stroke:#000000;stroke-width:0.1;stroke-miterlimit:4;stroke-dasharray:none;stroke-opacity:1" />
    <circle
       style="display:inline;opacity:1;fill:none;stroke:#000000;stroke-width:0.1;stroke-miterlimit:4;stroke-dasharray:none;stroke-opacity:1"
       id="path1723-1-6-5-0"
       cx="32.5"
       cy="77.5"
       inkscape:transform-center-x="5.1365235"
       inkscape:transform-center-y="-5.9583672"
       r="1" />
    <use
       x="0"
       y="0"
       xlink:href="#rect1148"
       id="use2557"
       transform="translate(95.000094)"
       width="100%"
       height="100%"
       style="stroke-width:0.1;stroke-miterlimit:4;stroke-dasharray:none" />
    <use
       x="0"
       y="0"
       xlink:href="#path1723"
       inkscape:transform-center-x="3.8523926"
       inkscape:transform-center-y="-4.4687754"
       id="use2559"
       transform="translate(95.000094)"
       width="100%"
       height="100%"
       style="stroke-width:0.1;stroke-miterlimit:4;stroke-dasharray:none" />
    <use
       x="0"
       y="0"
       xlink:href="#path1723-1"
       inkscape:transform-center-x="3.8523926"
       inkscape:transform-center-y="-4.4687754"
       id="use2561"
       transform="translate(95.000094)"
       width="100%"
       height="100%"
       style="stroke-width:0.1;stroke-miterlimit:4;stroke-dasharray:none" />
    <use
       x="0"
       y="0"
       xlink:href="#path1723-7"
       inkscape:transform-center-x="3.8523926"
       inkscape:transform-center-y="-4.4687754"
       id="use2563"
       transform="translate(95.000094)"
       width="100%"
       height="100%"
       style="stroke-width:0.1;stroke-miterlimit:4;stroke-dasharray:none" />
    <use
       x="0"
       y="0"
       xlink:href="#path1723-1-3"
       inkscape:transform-center-x="3.8523926"
       inkscape:transform-center-y="-4.4687754"
       id="use2565"
       transform="translate(95.000094)"
       width="100%"
       height="100%"
       style="stroke-width:0.1;stroke-miterlimit:4;stroke-dasharray:none" />
    <path
       inkscape:connector-curvature="0"
       transform="scale(0.26458333)"
       id="path2625"
       style="display:inline;opacity:1;fill:none;stroke:#000000;stroke-width:0.377953;stroke-linejoin:round;stroke-miterlimit:4;stroke-dasharray:none;stroke-opacity:1;stop-opacity:1"
       d="m 437.48047,75.589844 c -1.57039,0 -2.83594,1.265544 -2.83594,2.835937 0,1.570394 1.26555,2.833985 2.83594,2.833985 h 57.63672 v 45.353514 h -10.39258 c -1.57039,0 -2.83398,1.26555 -2.83399,2.83594 10e-6,1.57039 1.2636,2.83398 2.83399,2.83398 h 13.22851 c 1.5704,0 2.83399,-1.26359 2.83399,-2.83398 V 78.425781 c 0,-1.570393 -1.26363,-2.835937 -2.83399,-2.835937 z m 69.91992,0 c -1.57039,0 -2.83398,1.265544 -2.83398,2.835937 V 136.0625 h -45.35352 v -10.39258 c 0,-1.57039 -1.26359,-2.83594 -2.83398,-2.83594 -1.5704,0 -2.83594,1.26555 -2.83594,2.83594 v 13.22852 c 0,0.5889 0.17933,1.13367 0.48437,1.58594 0.10193,0.15112 0.21724,0.29158 0.34571,0.41992 0.12809,0.12809 0.26721,0.24402 0.41797,0.3457 0.15071,0.10164 0.31082,0.18827 0.48046,0.25977 0,0 0.002,0 0.002,0 0.16914,0.0711 0.34702,0.12852 0.53125,0.16601 0,0 0.002,0 0.002,0 0.18426,0.0374 0.37468,0.0566 0.57031,0.0566 h 0.002 51.02148 c 0.19616,0 0.38936,-0.019 0.57422,-0.0566 1.29403,-0.26347 2.26172,-1.40325 2.26172,-2.77734 V 78.425781 c 0,-1.570393 -1.26551,-2.835937 -2.83594,-2.835937 z m -69.91992,9.449218 c -0.19616,0 -0.38936,0.01888 -0.57422,0.05664 -1.29403,0.263471 -2.26172,1.403255 -2.26172,2.777344 V 148.3457 c 0,1.5704 1.26555,2.83594 2.83594,2.83594 1.57039,0 2.83398,-1.26554 2.83398,-2.83594 V 90.708984 h 45.35547 v 10.392576 c 0,1.5704 1.26359,2.83594 2.83399,2.83594 1.57039,0 2.83398,-1.26554 2.83398,-2.83594 V 87.873047 c 0,-1.373439 -0.96667,-2.513178 -2.25977,-2.777344 0,0 -0.002,0 -0.002,0 -0.18486,-0.03764 -0.37596,-0.05664 -0.57226,-0.05664 z m 9.44726,9.449219 c -0.39259,0 -0.76616,0.07966 -1.10546,0.222657 -0.1691,0.0714 -0.33019,0.158402 -0.48047,0.259765 -0.1503,0.101362 -0.29021,0.218077 -0.41797,0.345703 -0.12848,0.128336 -0.24378,0.268786 -0.34571,0.419922 -0.30503,0.45227 -0.48437,0.99704 -0.48437,1.585938 V 148.3457 c 0,1.5704 1.26359,2.83594 2.83398,2.83594 h 60.47266 c 1.57039,0 2.83594,-1.26554 2.83594,-2.83594 0,-1.57039 -1.26555,-2.83398 -2.83594,-2.83398 H 449.76367 V 100.1582 h 10.39453 c 1.5704,0 2.83399,-1.265541 2.83399,-2.835934 0,-1.570394 -1.26359,-2.833985 -2.83399,-2.833985 h -13.22851 z" />
    <use
       x="0"
       y="0"
       xlink:href="#rect1148-3"
       id="use2571"
       transform="translate(95.000094)"
       width="100%"
       height="100%"
       style="stroke-width:0.1;stroke-miterlimit:4;stroke-dasharray:none" />
    <use
       x="0"
       y="0"
       xlink:href="#path1723-3"
       inkscape:transform-center-x="3.8523926"
       inkscape:transform-center-y="-4.4687754"
       id="use2573"
       transform="translate(95.000094)"
       width="100%"
       height="100%"
       style="stroke-width:0.1;stroke-miterlimit:4;stroke-dasharray:none" />
    <use
       x="0"
       y="0"
       xlink:href="#path1723-1-0"
       inkscape:transform-center-x="3.8523926"
       inkscape:transform-center-y="-4.4687754"
       id="use2575"
       transform="translate(95.000094)"
       width="100%"
       height="100%"
       style="stroke-width:0.1;stroke-miterlimit:4;stroke-dasharray:none" />
    <use
       x="0"
       y="0"
       xlink:href="#path1723-7-6"
       inkscape:transform-center-x="3.8523926"
       inkscape:transform-center-y="-4.4687754"
       id="use2577"
       transform="translate(95.000094)"
       width="100%"
       height="100%"
       style="stroke-width:0.1;stroke-miterlimit:4;stroke-dasharray:none" />
    <use
       x="0"
       y="0"
       xlink:href="#path1723-1-3-9"
       inkscape:transform-center-x="3.8523926"
       inkscape:transform-center-y="-4.4687754"
       id="use2579"
       transform="translate(95.000094)"
       width="100%"
       height="100%"
       style="stroke-width:0.1;stroke-miterlimit:4;stroke-dasharray:none" />
    <use
       style="stroke-width:0.1;stroke-miterlimit:4;stroke-dasharray:none"
       height="100%"
       width="100%"
       transform="translate(95.000094,45.000094)"
       id="use82"
       xlink:href="#rect1148"
       y="0"
       x="0" />
    <use
       style="stroke-width:0.1;stroke-miterlimit:4;stroke-dasharray:none"
       height="100%"
       width="100%"
       transform="translate(95.000094,45.000094)"
       id="use84"
       inkscape:transform-center-y="-4.4687754"
       inkscape:transform-center-x="3.8523926"
       xlink:href="#path1723"
       y="0"
       x="0" />
    <use
       style="stroke-width:0.1;stroke-miterlimit:4;stroke-dasharray:none"
       height="100%"
       width="100%"
       transform="translate(95.000094,45.000094)"
       id="use86"
       inkscape:transform-center-y="-4.4687754"
       inkscape:transform-center-x="3.8523926"
       xlink:href="#path1723-1"
       y="0"
       x="0" />
    <use
       style="stroke-width:0.1;stroke-miterlimit:4;stroke-dasharray:none"
       height="100%"
       width="100%"
       transform="translate(95.000094,45.000094)"
       id="use88"
       inkscape:transform-center-y="-4.4687754"
       inkscape:transform-center-x="3.8523926"
       xlink:href="#path1723-7"
       y="0"
       x="0" />
    <use
       style="stroke-width:0.1;stroke-miterlimit:4;stroke-dasharray:none"
       height="100%"
       width="100%"
       transform="translate(95.000094,45.000094)"
       id="use90"
       inkscape:transform-center-y="-4.4687754"
       inkscape:transform-center-x="3.8523926"
       xlink:href="#path1723-1-3"
       y="0"
       x="0" />
    <path
       inkscape:connector-curvature="0"
       d="m 115.75004,64.999906 c -0.4155,0 -0.75034,0.334842 -0.75034,0.750342 0,0.4155 0.33484,0.749825 0.75034,0.749825 h 15.24972 v 11.999784 h -2.74971 c -0.4155,0 -0.74982,0.334843 -0.74982,0.750342 0,0.415499 0.33432,0.749824 0.74982,0.749824 h 3.50005 c 0.4155,0 0.74982,-0.334325 0.74982,-0.749824 V 65.750248 c 0,-0.4155 -0.33433,-0.750342 -0.74982,-0.750342 z m 18.49965,0 c -0.4155,0 -0.74983,0.334842 -0.74983,0.750342 V 80.999963 H 121.50008 V 78.25026 c 0,-0.415499 -0.33433,-0.750343 -0.74983,-0.750343 -0.4155,0 -0.75034,0.334844 -0.75034,0.750343 v 3.500045 c 0,0.155814 0.0474,0.299951 0.12816,0.419614 0.027,0.03998 0.0575,0.07715 0.0915,0.111104 0.0339,0.03389 0.0707,0.06456 0.11058,0.09147 0.0399,0.02689 0.0822,0.04981 0.12713,0.06873 0,0 5.1e-4,0 5.1e-4,0 0.0448,0.01882 0.0918,0.034 0.14056,0.04392 0,0 5.2e-4,0 5.2e-4,0 0.0487,0.0099 0.0991,0.01499 0.15089,0.01499 h 5.2e-4 13.49944 c 0.0519,0 0.10301,-0.005 0.15192,-0.01499 0.34238,-0.06971 0.59842,-0.371276 0.59842,-0.734838 V 65.750248 c 0,-0.4155 -0.33483,-0.750342 -0.75034,-0.750342 z m -18.49965,2.500106 c -0.0519,0 -0.10302,0.005 -0.15193,0.01499 -0.34238,0.06971 -0.59841,0.371278 -0.59841,0.734839 v 16.000052 c 0,0.415502 0.33484,0.750342 0.75034,0.750342 0.4155,0 0.74982,-0.33484 0.74982,-0.750342 V 69.000179 h 12.00031 v 2.749702 c 0,0.415502 0.33432,0.750342 0.74982,0.750342 0.4155,0 0.74983,-0.33484 0.74983,-0.750342 v -3.500044 c 0,-0.363389 -0.25577,-0.664945 -0.5979,-0.734839 0,0 -5.2e-4,0 -5.2e-4,0 -0.0489,-0.01 -0.0995,-0.01499 -0.15141,-0.01499 z m 2.49959,2.500106 c -0.10387,0 -0.20272,0.02108 -0.29249,0.05891 -0.0447,0.01889 -0.0874,0.04191 -0.12712,0.06873 -0.0398,0.02682 -0.0768,0.0577 -0.11059,0.09147 -0.034,0.03396 -0.0645,0.07112 -0.0915,0.111104 -0.0807,0.119663 -0.12816,0.2638 -0.12816,0.419613 v 13.49995 c 0,0.415502 0.33433,0.750342 0.74983,0.750342 h 16.00006 c 0.41549,0 0.75034,-0.33484 0.75034,-0.750342 0,-0.415499 -0.33485,-0.749824 -0.75034,-0.749824 H 118.99997 V 71.500284 h 2.75022 c 0.4155,0 0.74983,-0.334841 0.74983,-0.750341 0,-0.4155 -0.33433,-0.749825 -0.74983,-0.749825 h -3.50004 z"
       style="display:inline;opacity:1;fill:none;stroke:#000000;stroke-width:0.1;stroke-linejoin:round;stroke-miterlimit:4;stroke-dasharray:none;stroke-opacity:1;stop-opacity:1"
       id="path92" />
    <use
       style="stroke-width:0.1;stroke-miterlimit:4;stroke-dasharray:none"
       height="100%"
       width="100%"
       transform="translate(95.000094,45.000094)"
       id="use94"
       xlink:href="#rect1148-3"
       y="0"
       x="0" />
    <use
       style="stroke-width:0.1;stroke-miterlimit:4;stroke-dasharray:none"
       height="100%"
       width="100%"
       transform="translate(95.000094,45.000094)"
       id="use96"
       inkscape:transform-center-y="-4.4687754"
       inkscape:transform-center-x="3.8523926"
       xlink:href="#path1723-3"
       y="0"
       x="0" />
    <use
       style="stroke-width:0.1;stroke-miterlimit:4;stroke-dasharray:none"
       height="100%"
       width="100%"
       transform="translate(95.000094,45.000094)"
       id="use98"
       inkscape:transform-center-y="-4.4687754"
       inkscape:transform-center-x="3.8523926"
       xlink:href="#path1723-1-0"
       y="0"
       x="0" />
    <use
       style="stroke-width:0.1;stroke-miterlimit:4;stroke-dasharray:none"
       height="100%"
       width="100%"
       transform="translate(95.000094,45.000094)"
       id="use100"
       inkscape:transform-center-y="-4.4687754"
       inkscape:transform-center-x="3.8523926"
       xlink:href="#path1723-7-6"
       y="0"
       x="0" />
    <use
       style="stroke-width:0.1;stroke-miterlimit:4;stroke-dasharray:none"
       height="100%"
       width="100%"
       transform="translate(95.000094,45.000094)"
       id="use102"
       inkscape:transform-center-y="-4.4687754"
       inkscape:transform-center-x="3.8523926"
       xlink:href="#path1723-1-3-9"
       y="0"
       x="0" />
    <circle
       style="display:inline;opacity:1;fill:none;stroke:#000000;stroke-width:0.1;stroke-miterlimit:4;stroke-dasharray:none;stroke-opacity:1"
       id="circle112"
       cx="123.5"
       cy="76.5"
       inkscape:transform-center-x="5.1365235"
       inkscape:transform-center-y="-5.9583672"
       r="1" />
    <circle
       r="1"
       inkscape:transform-center-y="-5.9583672"
       inkscape:transform-center-x="5.1365235"
       cy="76.5"
       cx="126.5"
       id="circle114"
       style="display:inline;opacity:1;fill:none;stroke:#000000;stroke-width:0.1;stroke-miterlimit:4;stroke-dasharray:none;stroke-opacity:1" />
    <circle
       r="1"
       inkscape:transform-center-y="-5.9583672"
       inkscape:transform-center-x="5.1365235"
       cy="73.5"
       cx="123.5"
       id="circle112-3"
       style="display:inline;opacity:1;fill:none;stroke:#000000;stroke-width:0.1;stroke-miterlimit:4;stroke-dasharray:none;stroke-opacity:1" />
    <circle
       style="display:inline;opacity:1;fill:none;stroke:#000000;stroke-width:0.1;stroke-miterlimit:4;stroke-dasharray:none;stroke-opacity:1"
       id="circle114-4"
       cx="126.5"
       cy="73.5"
       inkscape:transform-center-x="5.1365235"
       inkscape:transform-center-y="-5.9583672"
       r="1" />
  </g>
  <g
     id="g826"
     inkscape:groupmode="layer"
     inkscape:label="B.Cu-disabled"
     style="display:none" />
  <g
     id="g828"
     inkscape:groupmode="layer"
     inkscape:label="B.Mask-disabled"
     style="display:none" />
  <g
     id="g830"
     inkscape:groupmode="layer"
     inkscape:label="B.Silk-disabled"
     style="display:none" />
  <g
     id="g832"
     inkscape:groupmode="layer"
     inkscape:label="F.Cu"
     style="display:inline">
    <path
       id="path1968"
       style="display:inline;opacity:1;fill:#ff0000;fill-opacity:1;stroke:none;stroke-width:0.453018;stroke-linejoin:round;stroke-miterlimit:4;stroke-dasharray:none;stroke-opacity:1"
       d="m 141.73242,75.589844 v 2.835937 6.613281 44.410158 c 0,1.57039 -1.26359,2.83398 -2.83398,2.83398 -1.5704,0 -2.83594,-1.26359 -2.83594,-2.83398 V 85.039062 81.259766 H 78.425781 75.589844 v 3.779296 h 2.835937 6.613281 44.410158 c 1.57039,10e-7 2.83398,1.263595 2.83398,2.833985 0,1.570401 -1.26359,2.835937 -2.83398,2.835937 H 85.039062 81.259766 v 57.636716 2.83399 19.03711 18.75976 H 107.7168 V 156.84961 H 85.109375 v -5.66992 h -0.07031 v -2.83399 -6.61328 -44.410154 c 1e-6,-1.57039 1.263595,-2.833985 2.833985,-2.833985 1.570401,0 2.835937,1.263595 2.835937,2.833985 v 44.410154 3.7793 h 57.636713 2.83594 v -3.7793 h -2.83594 -6.61328 -44.410151 c -1.570394,0 -2.833985,-1.26359 -2.833985,-2.83398 0,-1.5704 1.263591,-2.83594 2.833985,-2.83594 h 44.410151 3.7793 V 78.425781 75.589844 Z"
       transform="scale(0.26458333)"
       inkscape:connector-curvature="0" />
    <path
       id="path1968-7"
       style="display:inline;opacity:1;fill:#ff0000;fill-opacity:1;stroke:none;stroke-width:0.453018;stroke-linejoin:round;stroke-miterlimit:4;stroke-dasharray:none;stroke-opacity:1"
       d="m 245.66797,75.589844 v 5.669922 3.779296 66.142578 h 5.66992 v 19.03516 18.75976 h 26.45703 V 156.84961 H 255.1875 v -5.66797 h 66.07227 v -5.66992 -3.7793 -66.142576 h -5.66993 -3.77929 z"
       transform="scale(0.26458333)"
       inkscape:connector-curvature="0" />
    <use
       x="0"
       y="0"
       xlink:href="#path1968-7"
       id="use2483"
       transform="translate(9.368015e-5,45.000094)"
       width="100%"
       height="100%" />
    <path
       id="use2481"
       style="display:inline;opacity:1;fill:#ff0000;fill-opacity:1;stroke:none;stroke-width:0.453018;stroke-linejoin:round;stroke-miterlimit:4;stroke-dasharray:none;stroke-opacity:1;stop-opacity:1"
       d="m 141.73242,245.66797 v 2.83594 6.61328 44.41015 c 0,1.57039 -1.26359,2.83399 -2.83398,2.83399 -1.5704,0 -2.83594,-1.2636 -2.83594,-2.83399 v -44.41015 -3.7793 H 78.425781 75.589844 v 3.7793 h 2.835937 6.613281 44.410158 c 1.57039,0 2.83398,1.26359 2.83398,2.83398 0,1.5704 -1.26359,2.83594 -2.83398,2.83594 H 85.039062 81.259766 v 57.63672 2.83398 19.03711 18.75977 H 107.7168 V 326.92773 H 85.109375 v -5.66992 h -0.07031 v -2.83398 -6.61328 -44.41016 c 0,-1.57039 1.263595,-2.83398 2.833985,-2.83398 1.570401,0 2.835937,1.26359 2.835937,2.83398 v 44.41016 3.77929 h 57.636713 2.83594 v -3.77929 h -2.83594 -6.61328 -44.410151 c -1.570394,0 -2.833985,-1.2636 -2.833985,-2.83399 0,-1.5704 1.263591,-2.83594 2.833985,-2.83594 h 44.410151 3.7793 v -57.63671 -2.83594 z m -37.84765,24.56836 a 3.7795276,3.7795276 0 0 1 0.0527,0 3.7795276,3.7795276 0 0 1 3.7793,3.77929 3.7795276,3.7795276 0 0 1 -3.7793,3.7793 3.7795276,3.7795276 0 0 1 -3.7793,-3.7793 3.7795276,3.7795276 0 0 1 3.72657,-3.77929 z m 18.89843,0 a 3.7795276,3.7795276 0 0 1 0.0508,0 3.7795276,3.7795276 0 0 1 3.7793,3.77929 3.7795276,3.7795276 0 0 1 -3.7793,3.7793 3.7795276,3.7795276 0 0 1 -3.77929,-3.7793 3.7795276,3.7795276 0 0 1 3.72851,-3.77929 z m -18.89843,18.89844 a 3.7795276,3.7795276 0 0 1 0.0527,0 3.7795276,3.7795276 0 0 1 3.7793,3.77929 3.7795276,3.7795276 0 0 1 -3.7793,3.7793 3.7795276,3.7795276 0 0 1 -3.7793,-3.7793 3.7795276,3.7795276 0 0 1 3.72657,-3.77929 z m 18.89843,0 a 3.7795276,3.7795276 0 0 1 0.0508,0 3.7795276,3.7795276 0 0 1 3.7793,3.77929 3.7795276,3.7795276 0 0 1 -3.7793,3.7793 3.7795276,3.7795276 0 0 1 -3.77929,-3.7793 3.7795276,3.7795276 0 0 1 3.72851,-3.77929 z"
       transform="scale(0.26458333)"
       inkscape:connector-curvature="0" />
    <use
       x="0"
       y="0"
       xlink:href="#path1968-7"
       id="use2611"
       transform="translate(95.000094)"
       width="100%"
       height="100%" />
    <path
       inkscape:connector-curvature="0"
       transform="scale(0.26458333)"
       d="m 500.78711,75.589844 v 2.835937 51.023439 c 0,0.1963 -0.019,0.38742 -0.0566,0.57226 -0.0752,0.36969 -0.22249,0.71224 -0.42578,1.01368 -0.50822,0.75358 -1.37007,1.24804 -2.35157,1.24804 h -13.22851 c -1.57039,0 -2.83398,-1.26359 -2.83399,-2.83398 10e-6,-1.57039 1.2636,-2.83594 2.83399,-2.83594 h 10.39258 V 85.039062 81.259766 h -57.63672 -2.83594 v 3.779296 h 2.83594 51.02344 c 0.1963,0 0.3874,0.019 0.57226,0.05664 6.2e-4,1.26e-4 10e-4,-1.27e-4 0.002,0 0.17784,0.03633 0.34791,0.09238 0.51172,0.160156 0.0358,0.0148 0.0685,0.03457 0.10352,0.05078 0.11996,0.05553 0.23562,0.116402 0.3457,0.1875 0.0545,0.03513 0.10441,0.07459 0.15625,0.113281 0.0855,0.06391 0.16847,0.130141 0.2461,0.203125 0.0482,0.04526 0.0938,0.09211 0.13867,0.140625 0.0728,0.07867 0.13958,0.161439 0.20312,0.248047 0.0412,0.05607 0.0801,0.112743 0.11719,0.171875 0.0509,0.08135 0.096,0.165287 0.13867,0.251953 0.035,0.07101 0.0706,0.140585 0.0996,0.214844 0.0362,0.09259 0.0614,0.190012 0.0879,0.287109 0.0199,0.073 0.0444,0.143486 0.0586,0.21875 0.0323,0.171959 0.0527,0.347681 0.0527,0.529297 v 13.228516 c 0,1.5704 -1.26359,2.83594 -2.83398,2.83594 -1.5704,0 -2.83399,-1.26554 -2.83399,-2.83594 V 90.708984 h -45.35547 v 57.636716 2.83399 19.03711 18.75976 h 26.45703 v -32.12695 h -22.60742 v -5.66992 h -0.0703 v -2.83399 -6.61328 -44.410154 c 0,-0.178729 0.0212,-0.352237 0.0527,-0.521485 0.008,-0.04454 0.021,-0.08709 0.0312,-0.130859 0.0298,-0.12603 0.0654,-0.248378 0.11133,-0.367188 0.0175,-0.04549 0.035,-0.09046 0.0547,-0.134765 0.0673,-0.150522 0.14314,-0.296373 0.23437,-0.431641 0.10193,-0.151136 0.21723,-0.291586 0.34571,-0.419922 0.12776,-0.127626 0.26767,-0.244341 0.41797,-0.345703 0.15028,-0.101363 0.31137,-0.188361 0.48047,-0.259765 0.3393,-0.143 0.71287,-0.222657 1.10546,-0.222657 h 0.002 13.22851 c 1.5704,0 2.83399,1.263591 2.83399,2.833985 0,1.570393 -1.26359,2.835934 -2.83399,2.835934 h -10.39453 v 45.35352 h 57.63672 2.83594 v -3.7793 h -2.83594 -6.61328 -44.4082 -0.002 c -0.19563,0 -0.38605,-0.0193 -0.57031,-0.0566 h -0.002 c -0.18423,-0.0375 -0.36211,-0.0949 -0.53125,-0.16601 h -0.002 c -0.16964,-0.0715 -0.32975,-0.15813 -0.48046,-0.25977 -0.15076,-0.10168 -0.28988,-0.21761 -0.41797,-0.3457 -0.12847,-0.12834 -0.24378,-0.26879 -0.34571,-0.41992 -0.0912,-0.13527 -0.16706,-0.28112 -0.23437,-0.43165 -0.0197,-0.0443 -0.0372,-0.0893 -0.0547,-0.13476 -0.046,-0.11881 -0.0815,-0.24116 -0.11133,-0.36719 -0.0103,-0.0438 -0.023,-0.0863 -0.0312,-0.13086 -0.0315,-0.16925 -0.0527,-0.34275 -0.0527,-0.52148 v -13.22852 c 0,-1.57039 1.26554,-2.83594 2.83594,-2.83594 1.57039,0 2.83398,1.26555 2.83398,2.83594 v 10.39258 h 41.57422 3.7793 V 78.425781 75.589844 Z"
       style="display:inline;opacity:1;fill:#ff0000;fill-opacity:1;stroke:none;stroke-width:0.453018;stroke-linejoin:round;stroke-miterlimit:4;stroke-dasharray:none;stroke-opacity:1;stop-opacity:1"
       id="use2609" />
    <use
       height="100%"
       width="100%"
       transform="translate(95.000094,45.000094)"
       id="use104"
       xlink:href="#path1968-7"
       y="0"
       x="0" />
    <path
       inkscape:connector-curvature="0"
       transform="scale(0.26458333)"
       d="m 500.78711,245.66797 v 2.83594 51.02343 c 0,0.19631 -0.0188,0.38743 -0.0566,0.57227 -0.0752,0.36967 -0.2226,0.71223 -0.42578,1.01367 -0.5082,0.75358 -1.3701,1.24805 -2.35157,1.24805 h -13.22851 c -1.57039,0 -2.83398,-1.2636 -2.83399,-2.83399 0,-1.57039 1.2636,-2.83593 2.83399,-2.83593 h 10.39258 v -41.57422 -3.7793 h -57.63672 -2.83594 v 3.7793 h 2.83594 51.02344 c 0.19615,0 0.38741,0.0208 0.57226,0.0586 h 0.002 c 0.17802,0.0363 0.34807,0.0904 0.51172,0.1582 0.034,0.0147 0.0684,0.0363 0.10352,0.0527 0.11981,0.0555 0.23572,0.11641 0.3457,0.1875 0.0544,0.0352 0.10447,0.0727 0.15625,0.11133 0.0854,0.0639 0.16862,0.13014 0.2461,0.20312 0.0484,0.0452 0.0937,0.0921 0.13867,0.14063 0.0729,0.0787 0.13963,0.16142 0.20312,0.24804 0.0412,0.0561 0.0802,0.11468 0.11719,0.17383 0.051,0.0813 0.096,0.16532 0.13867,0.25195 0.034,0.071 0.0705,0.13867 0.0996,0.2129 0.0378,0.0926 0.0614,0.19004 0.0879,0.2871 0.0189,0.073 0.0446,0.14347 0.0586,0.21876 0.034,0.17193 0.0527,0.34767 0.0527,0.52929 v 13.22852 c 0,1.5704 -1.26359,2.83593 -2.83398,2.83593 -1.5704,0 -2.83399,-1.26553 -2.83399,-2.83593 v -10.39258 h -45.35547 v 57.63672 2.83398 19.03711 18.75977 h 26.45703 V 326.9277 h -22.60742 v -5.66992 h -0.0703 v -2.83398 -6.61328 -44.41016 c 0,-0.17873 0.0229,-0.35225 0.0527,-0.52148 0.008,-0.0446 0.0217,-0.0851 0.0293,-0.12891 0.0302,-0.12605 0.0652,-0.2484 0.11133,-0.36719 0.0189,-0.0455 0.0339,-0.0924 0.0547,-0.13672 0.0673,-0.15053 0.14329,-0.29639 0.23437,-0.43164 0.10205,-0.15114 0.2172,-0.29159 0.34571,-0.41992 0.12771,-0.12763 0.26758,-0.24433 0.41796,-0.3457 0.15043,-0.10137 0.31145,-0.18837 0.48047,-0.25977 0.3394,-0.14301 0.71289,-0.22265 1.10547,-0.22265 h 0.002 13.22852 c 1.57039,0 2.83398,1.26359 2.83398,2.83398 0,1.57039 -1.26359,2.83594 -2.83398,2.83594 h -10.39453 v 45.35351 h 57.63672 2.83594 v -3.77929 h -2.83594 -6.61328 -44.40821 -0.002 c -0.19578,0 -0.38606,-0.0173 -0.57031,-0.0547 h -0.002 c -0.18406,-0.0374 -0.36207,-0.0949 -0.53125,-0.16602 h -0.002 c -0.1697,-0.0715 -0.32959,-0.15813 -0.48047,-0.25976 -0.1508,-0.10167 -0.28988,-0.21765 -0.41797,-0.3457 -0.1285,-0.12836 -0.24365,-0.26881 -0.3457,-0.41993 -0.0911,-0.13527 -0.1671,-0.28111 -0.23437,-0.43164 -0.0189,-0.0443 -0.0377,-0.0893 -0.0547,-0.13476 -0.0461,-0.11883 -0.0815,-0.24118 -0.11133,-0.36719 -0.0113,-0.0438 -0.0217,-0.0863 -0.0293,-0.13086 -0.0302,-0.16925 -0.0527,-0.34277 -0.0527,-0.52148 V 295.75 c 0,-1.57039 1.26554,-2.83594 2.83594,-2.83594 1.57039,0 2.83398,1.26555 2.83398,2.83594 v 10.39258 h 41.57422 3.7793 v -57.63867 -2.83594 z m -34.06641,28.34765 a 3.7795276,3.7795276 0 0 1 0.0508,0 3.7795276,3.7795276 0 0 1 3.7793,3.7793 3.7795276,3.7795276 0 0 1 -3.7793,3.7793 3.7795276,3.7795276 0 0 1 -3.77929,-3.7793 3.7795276,3.7795276 0 0 1 3.72851,-3.7793 z m 11.33789,0 a 3.7795276,3.7795276 0 0 1 0.0508,0 3.7795276,3.7795276 0 0 1 3.78124,3.7793 3.7795276,3.7795276 0 0 1 -3.78124,3.7793 3.7795276,3.7795276 0 0 1 -3.7793,-3.7793 3.7795276,3.7795276 0 0 1 3.72851,-3.7793 z m -11.33984,11.3379 a 3.7795276,3.7795276 0 0 1 0.0527,0 3.7795276,3.7795276 0 0 1 3.7793,3.78125 3.7795276,3.7795276 0 0 1 -3.7793,3.77929 3.7795276,3.7795276 0 0 1 -3.77929,-3.77929 3.7795276,3.7795276 0 0 1 3.72656,-3.78125 z m 11.39063,0 a 3.7795276,3.7795276 0 0 1 3.78124,3.78125 3.7795276,3.7795276 0 0 1 -3.78124,3.77929 3.7795276,3.7795276 0 0 1 -3.7793,-3.77929 3.7795276,3.7795276 0 0 1 3.7793,-3.78125 z"
       style="display:inline;opacity:1;fill:#ff0000;fill-opacity:1;stroke:none;stroke-width:0.453018;stroke-linejoin:round;stroke-miterlimit:4;stroke-dasharray:none;stroke-opacity:1;stop-opacity:1"
       id="path106" />
  </g>
  <g
     id="g834"
     inkscape:groupmode="layer"
     inkscape:label="F.Mask-auto"
     style="display:none" />
  <g
     id="g836"
     inkscape:groupmode="layer"
     inkscape:label="F.Silk-disabled"
     style="display:none" />
  <g
     id="g838"
     inkscape:groupmode="layer"
     inkscape:label="Drill"
     style="display:none" />
</svg>
