<?xml version="1.0" encoding="UTF-8" standalone="no"?>
<svg
   xmlns:dc="http://purl.org/dc/elements/1.1/"
   xmlns:cc="http://creativecommons.org/ns#"
   xmlns:rdf="http://www.w3.org/1999/02/22-rdf-syntax-ns#"
   xmlns:svg="http://www.w3.org/2000/svg"
   xmlns="http://www.w3.org/2000/svg"
   xmlns:sodipodi="http://sodipodi.sourceforge.net/DTD/sodipodi-0.dtd"
   xmlns:inkscape="http://www.inkscape.org/namespaces/inkscape"
   sodipodi:docname="4_spring_plate.svg"
   inkscape:version="1.0beta1 (32d4812, 2019-09-19)"
   width="200.0mm"
   height="200.0mm"
   viewBox="0 0 200.0 200.0"
   version="1.1"
   id="svg8">
  <defs
     id="defs2">
    <marker
       inkscape:isstock="true"
       style="overflow:visible"
       id="marker7586"
       refX="0"
       refY="0"
       orient="auto"
       inkscape:stockid="Arrow2Mstart">
      <path
         transform="scale(0.6)"
         d="M 8.7185878,4.0337352 -2.2072895,0.01601326 8.7185884,-4.0017078 c -1.7454984,2.3720609 -1.7354408,5.6174519 -6e-7,8.035443 z"
         style="fill:#000000;fill-opacity:1;fill-rule:evenodd;stroke:#000000;stroke-width:0.625;stroke-linejoin:round;stroke-opacity:1"
         id="path7584"
         inkscape:connector-curvature="0" />
    </marker>
    <marker
       inkscape:isstock="true"
       style="overflow:visible"
       id="marker7644"
       refX="0"
       refY="0"
       orient="auto"
       inkscape:stockid="Arrow2Mend">
      <path
         transform="scale(-0.6)"
         d="M 8.7185878,4.0337352 -2.2072895,0.01601326 8.7185884,-4.0017078 c -1.7454984,2.3720609 -1.7354408,5.6174519 -6e-7,8.035443 z"
         style="fill:#000000;fill-opacity:1;fill-rule:evenodd;stroke:#000000;stroke-width:0.625;stroke-linejoin:round;stroke-opacity:1"
         id="path7642"
         inkscape:connector-curvature="0" />
    </marker>
  </defs>
  <sodipodi:namedview
     inkscape:document-rotation="0"
     inkscape:snap-smooth-nodes="true"
     inkscape:object-paths="true"
     inkscape:bbox-nodes="true"
     inkscape:snap-bbox-edge-midpoints="true"
     inkscape:snap-object-midpoints="true"
     inkscape:snap-bbox-midpoints="true"
     inkscape:snap-bbox="true"
     inkscape:snap-grids="false"
     borderlayer="true"
     inkscape:window-maximized="0"
     inkscape:window-y="0"
     inkscape:window-x="0"
     inkscape:window-height="900"
     inkscape:window-width="1440"
     showgrid="true"
     inkscape:current-layer="g832"
     inkscape:document-units="mm"
     inkscape:cy="164.41538"
     inkscape:cx="251.80748"
     inkscape:zoom="2.0444433"
     inkscape:pageshadow="2"
     inkscape:pageopacity="0.0"
     borderopacity="1.0"
     bordercolor="#666666"
     pagecolor="#ffffff"
     id="base">
    <inkscape:grid
       originy="0"
       originx="0"
       dotted="false"
       spacingx="5"
       spacingy="5"
       empspacing="1"
       type="xygrid"
       units="mm"
       id="grid1024" />
  </sodipodi:namedview>
  <metadata
     id="metadata5">
    <rdf:RDF>
      <cc:Work
         rdf:about="">
        <dc:format>image/svg+xml</dc:format>
        <dc:type
           rdf:resource="http://purl.org/dc/dcmitype/StillImage" />
        <dc:title></dc:title>
      </cc:Work>
    </rdf:RDF>
  </metadata>
  <g
     style="display:none"
     inkscape:label="[fixed] BG"
     inkscape:groupmode="layer"
     sodipodi:insensitive="true"
     id="g822">
    <rect
       x="0"
       y="0"
       width="100"
       height="100"
       style="fill:#ffffff;fill-opacity:1;stroke:none"
       id="rect820" />
  </g>
  <g
     style="display:inline"
     inkscape:label="Edge.Cuts"
     inkscape:groupmode="layer"
     id="g824">
    <path
       inkscape:connector-curvature="0"
       style="display:inline;fill:none;fill-opacity:1;stroke:#000000;stroke-width:0.1;stroke-miterlimit:4;stroke-dasharray:none;stroke-opacity:1"
       d="m 58.952757,70.905494 v 37.882956 h 21.44727 v -3.0918 l 0.02742,-0.27206 0.07864,-0.25338 0.124436,-0.22928 0.164808,-0.19976 0.199757,-0.1648 0.229282,-0.12444 0.253384,-0.0786 0.272061,-0.0274 h 4.299999 l 0.272081,0.0274 0.25344,0.0786 0.229364,0.12444 0.199851,0.1648 0.164903,0.19976 0.124519,0.22928 0.0787,0.25338 0.02744,0.27206 v 3.0918 h 4.573371 l 0.218275,-0.0165 0.202951,-0.0476 0.186379,-0.0757 0.168558,-0.1007 0.149489,-0.12274 0.129171,-0.14174 0.107606,-0.15775 0.08479,-0.17072 0.06073,-0.18069 0.03542,-0.18764 0.0089,-0.19157 -0.01895,-0.1925 -0.048,-0.19041 -0.07831,-0.18529 -0.109858,-0.17717 -0.142658,-0.16604 -1.182362,-1.18235 -0.111267,-0.12232 -0.09298,-0.1253 -0.07542,-0.12758 -0.05857,-0.12916 -0.04245,-0.13001 -0.02705,-0.13018 -0.0108,-0.25799 0.04214,-0.25014 0.0893,-0.23664 0.130682,-0.21747 0.16629,-0.19266 0.196124,-0.16218 0.220181,-0.12606 0.238465,-0.0843 0.250973,-0.0369 0.257705,0.0162 0.129572,0.0298 0.12909,0.0452 0.127886,0.0613 0.125959,0.0781 0.123311,0.0956 0.119941,0.11383 1.162211,1.1627 0.160091,0.14265 0.160376,0.10985 0.159197,0.0783 0.156555,0.048 0.152446,0.0189 0.146874,-0.009 0.139837,-0.0354 0.131336,-0.0607 0.121369,-0.0848 0.10994,-0.10761 0.09704,-0.12916 0.08268,-0.14948 0.06686,-0.16855 0.04957,-0.18637 0.03082,-0.20294 0.0106,-0.21827 V 70.905494 H 58.952757"
       id="path935" />
    <path
       style="display:inline;fill:none;fill-opacity:1;stroke:#000000;stroke-width:0.1;stroke-miterlimit:4;stroke-dasharray:none;stroke-opacity:1"
       d="m 91.074303,75.054383 0.27808,0.02069 0.259831,0.07434 0.235766,0.122328 0.205888,0.164661 0.170193,0.201337 0.128683,0.232354 0.08136,0.257714 0.02822,0.277414 -0.0075,0.163764 -0.02237,0.153199 -0.03626,0.142634 -0.04916,0.132068 -0.06107,0.121503 -0.07198,0.110937 -0.172729,0.190178 -0.204477,0.147916 -0.228288,0.105655 -0.244161,0.06339 -0.252097,0.02113 -0.252096,-0.02113 -0.244157,-0.06339 -0.228282,-0.105655 -0.204469,-0.147916 -0.172718,-0.190178 -0.07197,-0.110937 -0.06106,-0.121503 -0.04915,-0.132068 -0.03626,-0.142634 -0.02236,-0.153199 -0.0075,-0.163764 0.02617,-0.267172 0.07571,-0.249534 0.120169,-0.226669 0.159552,-0.198579 0.193857,-0.165261 0.223084,-0.126717 0.247232,-0.08295 0.266302,-0.03395 v 0"
       id="path933"
       inkscape:connector-curvature="0" />
    <path
       style="display:inline;fill:none;fill-opacity:1;stroke:#000000;stroke-width:0.1;stroke-miterlimit:4;stroke-dasharray:none;stroke-opacity:1"
       d="m 64.412742,75.055748 0.278182,0.02037 0.259978,0.07408 0.235951,0.122118 0.206099,0.164504 0.170421,0.201232 0.128919,0.232302 0.08159,0.257715 0.02844,0.27747 -0.0077,0.163483 -0.02258,0.152936 -0.03642,0.142388 -0.04927,0.131841 -0.133159,0.23204 -0.172711,0.189851 -0.204353,0.147662 -0.228083,0.105473 -0.243905,0.06328 -0.251815,0.0211 -0.251815,-0.0211 -0.243905,-0.06328 -0.228083,-0.105473 -0.204353,-0.147662 -0.172711,-0.189851 -0.133159,-0.23204 -0.04927,-0.131841 -0.03642,-0.142388 -0.02258,-0.152936 -0.0077,-0.163483 0.02631,-0.266813 0.07571,-0.249203 0.120054,-0.226386 0.15934,-0.198361 0.19357,-0.165127 0.222744,-0.126685 0.24686,-0.08304 0.265921,-0.03418 v 0"
       id="path931"
       inkscape:connector-curvature="0" />
    <path
       inkscape:connector-curvature="0"
       style="display:inline;fill:none;fill-opacity:1;stroke:#000000;stroke-width:0.1;stroke-miterlimit:4;stroke-dasharray:none;stroke-opacity:1"
       d="m 68.344437,79.546784 h 16.80569 l 0.151146,0.01525 0.140766,0.04374 0.127372,0.06921 0.110968,0.09165 0.09155,0.111063 0.06912,0.127454 0.04368,0.140822 0.01523,0.151165 V 93.79709 l -0.01524,0.151139 -0.04368,0.14076 -0.06912,0.127369 -0.09155,0.110966 -0.110965,0.09155 -0.127368,0.06912 -0.140762,0.04368 -0.151142,0.01523 -0.151164,-0.01523 -0.14082,-0.04368 -0.127452,-0.06912 -0.111059,-0.09155 -0.09164,-0.110966 -0.0692,-0.127369 -0.04374,-0.14076 -0.01525,-0.151139 V 81.047014 h -16.05535 l -0.151142,-0.01523 -0.140762,-0.04368 -0.12737,-0.06912 -0.110966,-0.09155 -0.09155,-0.110965 -0.06912,-0.12737 -0.04368,-0.140762 -0.01523,-0.151142 0.01523,-0.151168 0.04368,-0.140823 0.06912,-0.127455 0.09155,-0.111061 0.110967,-0.09165 0.127373,-0.0692 0.140765,-0.04374 0.151146,-0.01525 v -6e-5"
       id="path929" />
    <path
       inkscape:connector-curvature="0"
       style="display:inline;fill:none;fill-opacity:1;stroke:#000000;stroke-width:0.1;stroke-miterlimit:4;stroke-dasharray:none;stroke-opacity:1"
       d="m 87.699837,79.546784 0.167659,0.01525 0.153183,0.04374 0.136281,0.06921 0.116947,0.09165 0.09519,0.111063 0.071,0.127454 0.04438,0.140822 0.01533,0.151165 v 16.599505 l -0.01523,0.151165 -0.04368,0.140819 -0.06912,0.127452 -0.09155,0.111059 -0.110966,0.09164 -0.12737,0.0692 -0.140762,0.04374 -0.151142,0.01525 h -13.80538 l -0.151142,-0.01525 -0.140762,-0.04374 -0.12737,-0.0692 -0.110965,-0.09164 -0.09155,-0.111059 -0.06912,-0.127452 -0.04368,-0.140819 -0.01523,-0.151165 0.01523,-0.151148 0.04368,-0.140766 0.06912,-0.127371 0.09155,-0.110965 0.110964,-0.09155 0.127368,-0.06912 0.140761,-0.04368 0.151142,-0.01523 h 12.955289 v -15.099866 -0.74982 l 0.01533,-0.151165 0.04437,-0.140822 0.071,-0.127454 0.09519,-0.111062 0.116945,-0.09165 0.136278,-0.06921 0.153181,-0.04374 0.167655,-0.01525 v 9e-6"
       id="path927" />
    <path
       inkscape:connector-curvature="0"
       style="display:inline;fill:none;fill-opacity:1;stroke:#000000;stroke-width:0.1;stroke-miterlimit:4;stroke-dasharray:none;stroke-opacity:1"
       d="m 68.344437,81.846889 h 13.80536 l 0.151168,0.01523 0.140824,0.04368 0.127456,0.06912 0.111062,0.09155 0.09164,0.110965 0.0692,0.127369 0.04374,0.140764 0.01525,0.151145 -0.01525,0.151165 -0.04374,0.14082 -0.0692,0.127453 -0.09164,0.11106 -0.111059,0.09164 -0.127452,0.0692 -0.14082,0.04374 -0.151164,0.01525 H 69.094777 v 16.04969 l -0.01525,0.151161 -0.04374,0.140819 -0.06921,0.12745 -0.09164,0.111059 -0.111061,0.09164 -0.127453,0.0692 -0.14082,0.0437 -0.151165,0.0152 -0.151146,-0.0152 -0.140765,-0.0437 -0.127373,-0.0692 -0.110967,-0.09164 -0.09155,-0.111059 -0.06912,-0.12745 -0.04368,-0.140819 -0.01523,-0.151161 V 82.596704 l 0.01523,-0.151145 0.04368,-0.140763 0.06912,-0.12737 0.09155,-0.110965 0.110967,-0.09155 0.127373,-0.06912 0.140765,-0.04368 0.151146,-0.01523 v 5e-6"
       id="path925" />
    <path
       inkscape:connector-curvature="0"
       style="display:inline;fill:none;fill-opacity:1;stroke:#000000;stroke-width:0.1;stroke-miterlimit:4;stroke-dasharray:none;stroke-opacity:1"
       d="m 70.844537,85.146949 0.151165,0.01523 0.14082,0.04368 0.127453,0.06912 0.111061,0.09155 0.09164,0.110965 0.06921,0.12737 0.04374,0.140763 0.01525,0.151145 v 12.750129 h 16.155091 l 0.151142,0.01523 0.140762,0.04368 0.12737,0.06912 0.110966,0.09155 0.09155,0.110968 0.06912,0.127371 0.04368,0.140763 0.01523,0.151143 -0.01523,0.151161 -0.04368,0.140819 -0.06912,0.12745 -0.09155,0.111059 -0.110967,0.09161 -0.127372,0.0692 -0.140765,0.0437 -0.151146,0.0152 h -16.90542 l -0.151143,-0.0152 -0.140763,-0.0437 -0.12737,-0.0692 -0.110966,-0.09161 -0.09155,-0.111059 -0.06912,-0.12745 -0.04368,-0.140819 -0.01523,-0.151161 V 85.896764 l 0.01523,-0.151145 0.04368,-0.140763 0.06912,-0.12737 0.09155,-0.110964 0.110965,-0.09155 0.12737,-0.06912 0.140762,-0.04368 0.151142,-0.01523 v 5e-6"
       id="path923" />
    <path
       style="display:inline;fill:none;fill-opacity:1;stroke:#000000;stroke-width:0.1;stroke-miterlimit:4;stroke-dasharray:none;stroke-opacity:1"
       d="m 64.413264,101.93774 0.278101,0.0205 0.259892,0.0741 0.235864,0.12215 0.206016,0.16451 0.170348,0.20121 0.128862,0.23226 0.08156,0.25767 0.02843,0.2774 -0.0075,0.16373 -0.02237,0.15316 -0.03626,0.1426 -0.04915,0.13204 -0.06106,0.12147 -0.07197,0.11091 -0.172707,0.19013 -0.204453,0.14788 -0.228263,0.10563 -0.244138,0.0634 -0.252077,0.0211 -0.25208,-0.0211 -0.244149,-0.0634 -0.228281,-0.10563 -0.204478,-0.14788 -0.172741,-0.19013 -0.07199,-0.11091 -0.06108,-0.12147 -0.04918,-0.13204 -0.03628,-0.1426 -0.0224,-0.15316 -0.0075,-0.16373 0.02633,-0.26687 0.07575,-0.24926 0.120114,-0.22643 0.159413,-0.19838 0.193652,-0.16513 0.222827,-0.12666 0.246943,-0.083 0.265997,-0.0341 v 0"
       id="path7564"
       inkscape:connector-curvature="0" />
    <path
       id="path937"
       d="m 98.663004,70.97164 v 37.88296 h 21.447266 v -3.09181 l 0.0274,-0.27206 0.0786,-0.25338 0.12444,-0.22928 0.16481,-0.19975 0.19975,-0.16481 0.22929,-0.12443 0.25338,-0.0786 0.27206,-0.0274 h 4.3 l 0.27208,0.0274 0.25344,0.0786 0.22937,0.12443 0.19985,0.16481 0.1649,0.19975 0.12452,0.22928 0.0787,0.25338 0.0274,0.27206 v 3.09181 h 4.57337 l 0.21827,-0.0165 0.20296,-0.0476 0.18637,-0.0757 0.16856,-0.10071 0.14949,-0.12273 0.12917,-0.14175 0.10761,-0.15774 0.0848,-0.17072 0.0607,-0.18069 0.0354,-0.18764 0.009,-0.19158 -0.0189,-0.1925 -0.048,-0.1904 -0.0783,-0.18529 -0.10986,-0.17718 -0.14266,-0.16603 -1.18236,-1.18235 -0.11127,-0.12232 -0.093,-0.1253 -0.0754,-0.12759 -0.0586,-0.12915 -0.0424,-0.13002 -0.0271,-0.13017 -0.0108,-0.258 0.0421,-0.25014 0.0893,-0.23663 0.13069,-0.21747 0.16629,-0.19266 0.19612,-0.16219 0.22018,-0.12606 0.23847,-0.0843 0.25097,-0.0369 0.2577,0.0162 0.12958,0.0298 0.12909,0.0452 0.12788,0.0613 0.12596,0.0781 0.12331,0.0956 0.11994,0.11383 1.16221,1.16271 0.16009,0.14264 0.16038,0.10985 0.1592,0.0783 0.15655,0.048 0.15245,0.0189 0.14687,-0.009 0.13984,-0.0354 0.13134,-0.0607 0.12136,-0.0848 0.10994,-0.1076 0.097,-0.12917 0.0827,-0.14948 0.0669,-0.16855 0.0496,-0.18637 0.0308,-0.20294 0.0106,-0.21826 V 70.97164 H 98.663004"
       style="display:inline;fill:none;fill-opacity:1;stroke:#000000;stroke-width:0.1;stroke-miterlimit:4;stroke-dasharray:none;stroke-opacity:1"
       inkscape:connector-curvature="0" />
    <path
       inkscape:connector-curvature="0"
       id="path939"
       d="m 130.78455,75.120529 0.27808,0.02069 0.25983,0.07434 0.23577,0.122328 0.20588,0.164661 0.1702,0.201337 0.12868,0.232354 0.0814,0.257714 0.0282,0.277414 -0.008,0.163764 -0.0224,0.153199 -0.0363,0.142634 -0.0492,0.132068 -0.0611,0.121503 -0.072,0.110937 -0.17273,0.190178 -0.20448,0.147916 -0.22828,0.105655 -0.24416,0.06339 -0.2521,0.02113 -0.2521,-0.02113 -0.24415,-0.06339 -0.22829,-0.105655 -0.20447,-0.147916 -0.17271,-0.190178 -0.072,-0.110937 -0.0611,-0.121503 -0.0491,-0.132068 -0.0362,-0.142634 -0.0224,-0.153199 -0.008,-0.163764 0.0262,-0.267172 0.0757,-0.249534 0.12017,-0.226669 0.15955,-0.198579 0.19385,-0.165261 0.22309,-0.126717 0.24723,-0.08295 0.2663,-0.03395 v 0"
       style="display:inline;fill:none;fill-opacity:1;stroke:#000000;stroke-width:0.1;stroke-miterlimit:4;stroke-dasharray:none;stroke-opacity:1" />
    <path
       inkscape:connector-curvature="0"
       id="path941"
       d="m 104.12299,75.121894 0.27818,0.02037 0.25998,0.07408 0.23595,0.122118 0.2061,0.164504 0.17042,0.201232 0.12892,0.232302 0.0816,0.257715 0.0284,0.27747 -0.008,0.163483 -0.0226,0.152936 -0.0364,0.142388 -0.0493,0.131841 -0.13316,0.23204 -0.17271,0.189851 -0.20435,0.147662 -0.22809,0.105473 -0.2439,0.06328 -0.25182,0.02109 -0.25181,-0.02109 -0.24391,-0.06328 -0.22808,-0.105473 -0.20435,-0.147662 -0.17271,-0.189851 -0.13316,-0.23204 -0.0493,-0.131841 -0.0364,-0.142388 -0.0226,-0.152936 -0.008,-0.163483 0.0263,-0.266813 0.0757,-0.249203 0.12005,-0.226386 0.15934,-0.19836 0.19357,-0.165128 0.22274,-0.126685 0.24686,-0.08304 0.26593,-0.03418 v 0"
       style="display:inline;fill:none;fill-opacity:1;stroke:#000000;stroke-width:0.1;stroke-miterlimit:4;stroke-dasharray:none;stroke-opacity:1" />
    <path
       inkscape:connector-curvature="0"
       id="path951"
       d="m 104.12351,102.00389 0.2781,0.0205 0.25989,0.0741 0.23587,0.12215 0.20601,0.1645 0.17035,0.20122 0.12886,0.23226 0.0816,0.25766 0.0284,0.27741 -0.007,0.16373 -0.0224,0.15316 -0.0363,0.1426 -0.0491,0.13203 -0.0611,0.12147 -0.072,0.11091 -0.1727,0.19014 -0.20446,0.14788 -0.22826,0.10563 -0.24414,0.0634 -0.25207,0.0211 -0.25208,-0.0211 -0.24415,-0.0634 -0.22828,-0.10563 -0.20448,-0.14788 -0.17274,-0.19014 -0.072,-0.11091 -0.0611,-0.12147 -0.0492,-0.13203 -0.0363,-0.1426 -0.0224,-0.15316 -0.008,-0.16373 0.0263,-0.26688 0.0757,-0.24926 0.12011,-0.22642 0.15941,-0.19838 0.19366,-0.16513 0.22282,-0.12666 0.24695,-0.083 0.26599,-0.0341 v 0"
       style="display:inline;fill:none;fill-opacity:1;stroke:#000000;stroke-width:0.1;stroke-miterlimit:4;stroke-dasharray:none;stroke-opacity:1" />
    <path
       transform="scale(0.26458333)"
       inkscape:connector-curvature="0"
       d="M 37.794922,37.794922 V 188.97656 h 75.591798 v -16.0625 c 0,-1.57039 1.26359,-2.83593 2.83398,-2.83594 h 32.125 c 1.5704,0 2.83594,1.26555 2.83594,2.83594 v 16.0625 h 37.79492 V 37.794922 Z"
       style="opacity:1;fill:none;fill-rule:evenodd;stroke:#000000;stroke-width:0.377953;stroke-miterlimit:4;stroke-dasharray:none;stroke-opacity:1"
       id="rect1148" />
    <circle
       inkscape:transform-center-y="-4.4687754"
       inkscape:transform-center-x="3.8523926"
       r="1.5"
       cy="16.5"
       cx="16.5"
       id="path1723"
       style="opacity:1;fill:none;stroke:#000000;stroke-width:0.080875;stroke-miterlimit:4;stroke-dasharray:none;stroke-opacity:1" />
    <circle
       style="display:inline;opacity:1;fill:none;stroke:#000000;stroke-width:0.0808749;stroke-miterlimit:4;stroke-dasharray:none;stroke-opacity:1"
       id="path1723-1"
       cx="16.5"
       cy="43.5"
       r="1.5"
       inkscape:transform-center-x="3.8523926"
       inkscape:transform-center-y="-4.4687754" />
    <circle
       style="display:inline;opacity:1;fill:none;stroke:#000000;stroke-width:0.0808749;stroke-miterlimit:4;stroke-dasharray:none;stroke-opacity:1"
       id="path1723-7"
       cx="43.5"
       cy="16.5"
       r="1.5"
       inkscape:transform-center-x="3.8523926"
       inkscape:transform-center-y="-4.4687754" />
    <circle
       inkscape:transform-center-y="-4.4687754"
       inkscape:transform-center-x="3.8523926"
       r="1.5"
       cy="43.5"
       cx="43.5"
       id="path1723-1-3"
       style="display:inline;opacity:1;fill:none;stroke:#000000;stroke-width:0.0808749;stroke-miterlimit:4;stroke-dasharray:none;stroke-opacity:1" />
    <path
       inkscape:connector-curvature="0"
       id="rect1796-3"
       style="display:inline;opacity:1;fill:none;stroke:#000000;stroke-width:0.0882174;stroke-linejoin:round;stroke-miterlimit:4;stroke-dasharray:none;stroke-opacity:1"
       d="m 20.750155,19.999812 c -0.4155,0 -0.750342,0.334842 -0.750342,0.750342 0,0.4155 0.334842,0.749825 0.750342,0.749825 H 35.99987 v 12.750127 c 0,0.415499 0.33484,0.749824 0.750342,0.749824 0.415499,0 0.749824,-0.334325 0.749824,-0.749824 V 20.750154 c 0,-0.4155 -0.334325,-0.750342 -0.749824,-0.750342 z m 18.499645,0 c -0.415499,0 -0.749824,0.334842 -0.749824,0.750342 V 35.99987 H 25.74985 c -0.4155,0 -0.749826,0.33484 -0.749826,0.750342 0,0.415499 0.334326,0.749824 0.749826,0.749824 H 39.2498 c 0.05194,0 0.103018,-0.005 0.151929,-0.01497 0.342378,-0.06971 0.598413,-0.371277 0.598413,-0.734838 V 20.750154 c 0,-0.4155 -0.334841,-0.750342 -0.750342,-0.750342 z m -18.499645,2.500106 c -0.05194,0 -0.103018,0.005 -0.151929,0.01499 -0.342378,0.06971 -0.598413,0.371278 -0.598413,0.734839 v 16.000057 c 0,0.415501 0.334841,0.750342 0.750342,0.750342 0.415499,0 0.749825,-0.334841 0.749825,-0.750342 V 24.000085 h 12.750126 c 0.415499,0 0.749824,-0.33484 0.749824,-0.750342 0,-0.415499 -0.334325,-0.749825 -0.749824,-0.749825 z m 2.499589,2.500106 c -0.415499,0 -0.749825,0.334326 -0.749825,0.749825 V 39.2498 c 0,0.415501 0.334326,0.750342 0.749825,0.750342 H 39.2498 c 0.415499,0 0.750342,-0.334841 0.750342,-0.750342 0,-0.415499 -0.334843,-0.749824 -0.750342,-0.749824 H 24.000085 V 25.749849 c 0,-0.415499 -0.334839,-0.749825 -0.750341,-0.749825 z" />
  </g>
  <g
     style="display:none"
     inkscape:label="B.Cu-disabled"
     inkscape:groupmode="layer"
     id="g826" />
  <g
     style="display:none"
     inkscape:label="B.Mask-disabled"
     inkscape:groupmode="layer"
     id="g828" />
  <g
     style="display:none"
     inkscape:label="B.Silk-disabled"
     inkscape:groupmode="layer"
     id="g830" />
  <g
     style="display:inline"
     inkscape:label="F.Cu"
     inkscape:groupmode="layer"
     id="g832">
    <path
       sodipodi:nodetypes="ccccscccccccscsccccccccccccscccccscscccccc"
       inkscape:connector-curvature="0"
       id="path7566"
       d="m 85.899467,79.546924 v 0.750341 0.749829 l 5.29e-4,12.74959 c -1.1e-5,0.4142 -0.335611,0.75034 -0.74982,0.75034 -0.41421,0 -0.75033,-0.33562 -0.75034,-0.74982 v -12.75011 h -16.05523 -0.75034 l 0.0196,0.79995 h 0.7307 0.75086 13.05438 c 0.41422,0 0.75036,0.3356 0.75034,0.74982 -1e-5,0.41421 -0.33613,0.75034 -0.75034,0.75034 H 69.095417 l -5.29e-4,13.6168 -5.03e-4,2.432851 v 1.027855 h -1.50017 v 8.36382 h 5.49992 v -8.36382 h -2.998778 v -1.027855 -0.783932 l -5.29e-4,-12.715999 c 10e-6,-0.41421 0.33561,-0.74983 0.74983,-0.74983 0.41421,0 0.75033,0.33562 0.75034,0.74983 l -1.6e-4,12.750019 16.90443,1.22e-4 v -0.99994 h -0.749821 -13.80471 c -0.41422,0 -0.74982,-0.336131 -0.74983,-0.750341 1e-5,-0.41421 0.33562,-0.74983 0.74983,-0.74983 h 12.955151 l -5.29e-4,-15.09983 v -0.74983 c -1.1e-5,-0.0364 0.006,-0.0714 0.0109,-0.10645 l -0.0109,-0.64389 z"
       style="display:inline;fill:#ff0000;fill-opacity:1;stroke:none;stroke-width:0.01;stroke-miterlimit:4;stroke-dasharray:none;stroke-opacity:1" />
    <path
       sodipodi:nodetypes="ccccccc"
       inkscape:connector-curvature="0"
       d="m 107.30446,79.613101 v 29.241539 l 5.49992,4e-5 v -8.64148 h 15.40513 V 79.613101 Z"
       style="fill:#ff0000;fill-opacity:1;stroke:none;stroke-width:0.264583px;stroke-linecap:butt;stroke-linejoin:miter;stroke-opacity:1"
       id="path963" />
    <path
       inkscape:connector-curvature="0"
       transform="scale(0.26458333)"
       d="m 141.73242,75.589844 v 2.835937 6.613281 44.410158 c 0,1.57039 -1.26359,2.83398 -2.83398,2.83398 -1.5704,0 -2.83594,-1.26359 -2.83594,-2.83398 V 85.039062 81.259766 H 78.425781 75.589844 v 3.779296 h 2.835937 6.613281 44.410158 c 1.57039,10e-7 2.83398,1.263595 2.83398,2.833985 0,1.570401 -1.26359,2.835937 -2.83398,2.835937 H 85.039062 81.259766 v 57.636716 2.83399 19.03711 18.75976 H 107.7168 V 156.84961 H 85.109375 v -5.66992 h -0.07031 v -2.83399 -6.61328 -44.410154 c 1e-6,-1.57039 1.263595,-2.833985 2.833985,-2.833985 1.570401,0 2.835937,1.263595 2.835937,2.833985 v 44.410154 3.7793 h 57.636713 2.83594 v -3.7793 h -2.83594 -6.61328 -44.410151 c -1.570394,0 -2.833985,-1.26359 -2.833985,-2.83398 0,-1.5704 1.263591,-2.83594 2.833985,-2.83594 h 44.410151 3.7793 V 78.425781 75.589844 Z"
       style="display:inline;opacity:1;fill:#ff0000;fill-opacity:1;stroke:none;stroke-width:0.453018;stroke-linejoin:round;stroke-miterlimit:4;stroke-dasharray:none;stroke-opacity:1"
       id="path1968" />
    <path
       id="rect1148-3"
       style="display:inline;opacity:1;fill:none;fill-rule:evenodd;stroke:#000000;stroke-width:0.1;stroke-miterlimit:4;stroke-dasharray:none;stroke-opacity:1"
       d="m 55,10 v 40.000141 h 20.00033 v -4.24987 c 0,-0.415499 0.334325,-0.75034 0.749824,-0.750343 h 8.499738 c 0.415502,0 0.750343,0.334844 0.750343,0.750343 v 4.24987 h 9.999906 V 10 Z"
       inkscape:connector-curvature="0" />
    <circle
       style="display:inline;opacity:1;fill:none;stroke:#000000;stroke-width:0.0808749;stroke-miterlimit:4;stroke-dasharray:none;stroke-opacity:1"
       id="path1723-3"
       cx="61.500092"
       cy="16.500093"
       r="1.5"
       inkscape:transform-center-x="3.8523926"
       inkscape:transform-center-y="-4.4687754" />
    <circle
       inkscape:transform-center-y="-4.4687754"
       inkscape:transform-center-x="3.8523926"
       r="1.5"
       cy="43.500088"
       cx="61.500092"
       id="path1723-1-0"
       style="display:inline;opacity:1;fill:none;stroke:#000000;stroke-width:0.0808749;stroke-miterlimit:4;stroke-dasharray:none;stroke-opacity:1" />
    <circle
       inkscape:transform-center-y="-4.4687754"
       inkscape:transform-center-x="3.8523926"
       r="1.5"
       cy="16.500093"
       cx="88.500092"
       id="path1723-7-6"
       style="display:inline;opacity:1;fill:none;stroke:#000000;stroke-width:0.0808749;stroke-miterlimit:4;stroke-dasharray:none;stroke-opacity:1" />
    <circle
       style="display:inline;opacity:1;fill:none;stroke:#000000;stroke-width:0.0808749;stroke-miterlimit:4;stroke-dasharray:none;stroke-opacity:1"
       id="path1723-1-3-9"
       cx="88.500092"
       cy="43.500088"
       r="1.5"
       inkscape:transform-center-x="3.8523926"
       inkscape:transform-center-y="-4.4687754" />
    <path
       id="path1968-7"
       style="display:inline;opacity:1;fill:#ff0000;fill-opacity:1;stroke:none;stroke-width:0.119861;stroke-linejoin:round;stroke-miterlimit:4;stroke-dasharray:none;stroke-opacity:1"
       d="m 82.500129,19.999906 v 0.750342 1.749764 11.750188 c 0,0.415499 -0.334325,0.749823 -0.749824,0.749823 -0.415501,0 -0.750342,-0.334324 -0.750342,-0.749823 V 22.500012 21.500073 H 65.750248 64.999906 v 0.999939 h 0.750342 1.749764 11.750188 c 0.415499,0 0.749823,0.334326 0.749823,0.749825 0,0.415502 -0.334324,0.750342 -0.749823,0.750342 H 67.500012 66.500073 v 15.249713 0.749827 5.036902 4.96352 h 7.00009 v -8.500256 h -5.981547 v -1.500166 h -0.0186 V 39.249892 37.500129 25.749943 c 0,-0.415499 0.334326,-0.749825 0.749825,-0.749825 0.415502,0 0.750342,0.334326 0.750342,0.749825 v 11.750186 0.999939 h 15.249712 0.750343 V 37.500129 H 84.249892 82.500129 70.749944 c -0.4155,0 -0.749825,-0.334325 -0.749825,-0.749824 0,-0.415501 0.334325,-0.750342 0.749825,-0.750342 h 11.750185 0.999939 V 20.750248 19.999906 Z"
       inkscape:connector-curvature="0" />
    <rect
       y="20"
       x="64.999901"
       height="20"
       width="20.000332"
       id="rect2043"
       style="opacity:1;fill:#ff0000;fill-opacity:1;stroke:none;stroke-width:0.1;stroke-linejoin:round;stroke-miterlimit:4;stroke-dasharray:none;stroke-opacity:1" />
  </g>
  <g
     style="display:none"
     inkscape:label="F.Mask-auto"
     inkscape:groupmode="layer"
     id="g834">
    <path
       style="display:inline;fill:#000000;fill-opacity:1;stroke:none;stroke-width:0.01;stroke-miterlimit:4;stroke-dasharray:none;stroke-opacity:1"
       d="m 85.899467,79.546924 v 0.750341 0.749829 l 5.29e-4,12.74959 c -1.1e-5,0.4142 -0.335611,0.75034 -0.74982,0.75034 -0.41421,0 -0.75033,-0.33562 -0.75034,-0.74982 v -12.75011 h -16.05523 -0.75034 l 0.0196,0.79995 h 0.7307 0.75086 13.05438 c 0.41422,0 0.75036,0.3356 0.75034,0.74982 -1e-5,0.41421 -0.33613,0.75034 -0.75034,0.75034 H 69.095417 l -5.29e-4,13.6168 -5.03e-4,2.432851 v 1.027855 h -1.50017 v 8.36382 h 5.49992 v -8.36382 h -2.998778 v -1.027855 -0.783932 l -5.29e-4,-12.715999 c 10e-6,-0.41421 0.33561,-0.74983 0.74983,-0.74983 0.41421,0 0.75033,0.33562 0.75034,0.74983 l -1.6e-4,12.750019 16.90443,1.22e-4 v -0.99994 h -0.749821 -13.80471 c -0.41422,0 -0.74982,-0.336131 -0.74983,-0.750341 1e-5,-0.41421 0.33562,-0.74983 0.74983,-0.74983 h 12.955151 l -5.29e-4,-15.09983 v -0.74983 c -1.1e-5,-0.0364 0.006,-0.0714 0.0109,-0.10645 l -0.0109,-0.64389 z"
       id="path918"
       inkscape:connector-curvature="0"
       sodipodi:nodetypes="ccccscccccccscsccccccccccccscccccscscccccc" />
    <path
       id="path968"
       style="display:inline;fill:#000000;fill-opacity:1;stroke:none;stroke-width:0.264583px;stroke-linecap:butt;stroke-linejoin:miter;stroke-opacity:1"
       d="m 106.30409,78.612736 v 30.241904 l 7.5,4e-5 v -7.64194 h 15.405 V 78.612736 Z"
       inkscape:connector-curvature="0"
       sodipodi:nodetypes="ccccccc" />
  </g>
  <g
     style="display:none"
     inkscape:label="F.Silk-disabled"
     inkscape:groupmode="layer"
     id="g836" />
  <g
     style="display:none"
     inkscape:label="Drill"
     inkscape:groupmode="layer"
     id="g838" />
</svg>
