<?xml version="1.0" encoding="UTF-8" standalone="no"?>
<svg
   xmlns:dc="http://purl.org/dc/elements/1.1/"
   xmlns:cc="http://creativecommons.org/ns#"
   xmlns:rdf="http://www.w3.org/1999/02/22-rdf-syntax-ns#"
   xmlns:svg="http://www.w3.org/2000/svg"
   xmlns="http://www.w3.org/2000/svg"
   xmlns:sodipodi="http://sodipodi.sourceforge.net/DTD/sodipodi-0.dtd"
   xmlns:inkscape="http://www.inkscape.org/namespaces/inkscape"
   sodipodi:docname="4_spring_plate_fem.svg"
   inkscape:version="1.0.0 (32d4812, 2019-09-19)"
   width="200.0mm"
   height="200.0mm"
   viewBox="0 0 200.0 200.0"
   version="1.1"
   id="svg8">
  <defs
     id="defs2" />
  <sodipodi:namedview
     inkscape:document-rotation="0"
     inkscape:snap-smooth-nodes="true"
     inkscape:object-paths="true"
     inkscape:bbox-nodes="true"
     inkscape:snap-bbox-edge-midpoints="true"
     inkscape:snap-object-midpoints="true"
     inkscape:snap-bbox-midpoints="true"
     inkscape:snap-bbox="true"
     inkscape:snap-grids="false"
     borderlayer="true"
     inkscape:window-maximized="0"
     inkscape:window-y="26"
     inkscape:window-x="0"
     inkscape:window-height="1054"
     inkscape:window-width="1920"
     showgrid="true"
     inkscape:current-layer="g832"
     inkscape:document-units="mm"
     inkscape:cy="650.42717"
     inkscape:cx="333.96941"
     inkscape:zoom="2.238375"
     inkscape:pageshadow="2"
     inkscape:pageopacity="0.0"
     borderopacity="1.0"
     bordercolor="#666666"
     pagecolor="#ffffff"
     id="base">
    <inkscape:grid
       originy="0"
       originx="0"
       dotted="false"
       spacingx="5"
       spacingy="5"
       empspacing="1"
       type="xygrid"
       units="mm"
       id="grid1024" />
  </sodipodi:namedview>
  <metadata
     id="metadata5">
    <rdf:RDF>
      <cc:Work
         rdf:about="">
        <dc:format>image/svg+xml</dc:format>
        <dc:type
           rdf:resource="http://purl.org/dc/dcmitype/StillImage" />
        <dc:title />
      </cc:Work>
    </rdf:RDF>
  </metadata>
  <g
     style="display:none"
     inkscape:label="[fixed] BG"
     inkscape:groupmode="layer"
     id="g822">
    <rect
       x="0"
       y="0"
       width="100"
       height="100"
       style="fill:#ffffff;fill-opacity:1;stroke:none"
       id="rect820" />
  </g>
  <g
     style="display:none"
     inkscape:label="Edge.Cuts"
     inkscape:groupmode="layer"
     id="g824" />
  <g
     style="display:none"
     inkscape:label="B.Cu-disabled"
     inkscape:groupmode="layer"
     id="g826" />
  <g
     style="display:none"
     inkscape:label="B.Mask-disabled"
     inkscape:groupmode="layer"
     id="g828" />
  <g
     style="display:none"
     inkscape:label="B.Silk-disabled"
     inkscape:groupmode="layer"
     id="g830" />
  <g
     style="display:inline"
     inkscape:label="F.Cu"
     inkscape:groupmode="layer"
     id="g832">
    <path
       id="rect1273"
       style="fill:#ff0000;fill-opacity:1;stroke:none;stroke-width:0.37795;stroke-linejoin:round;stroke-miterlimit:4;stroke-dasharray:none"
       d="M 160.63086 56.693359 L 160.63086 151.18164 L 154.96094 151.18164 L 154.96094 62.361328 L 56.693359 62.361328 L 56.693359 66.142578 L 151.18164 66.142578 L 151.18164 71.810547 L 62.363281 71.810547 L 62.363281 170.07812 L 66.142578 170.07812 L 66.142578 75.589844 L 71.810547 75.589844 L 71.810547 164.41016 L 170.07812 164.41016 L 170.07812 160.63086 L 164.41016 160.63086 L 75.591797 160.63086 L 75.591797 154.96094 L 164.41016 154.96094 L 164.41016 56.693359 L 160.63086 56.693359 z "
       transform="scale(0.26458333)" />
    <path
       id="use1574"
       style="opacity:1;fill:#ff0000;fill-opacity:1;stroke:none;stroke-width:0.37795;stroke-linejoin:round;stroke-miterlimit:4;stroke-dasharray:none;stop-opacity:1"
       d="M 519.68555 56.693359 L 519.68555 62.361328 L 519.68555 145.51172 L 519.68555 151.18164 L 444.09375 151.18164 L 444.09375 145.51172 L 514.01562 145.51172 L 514.01562 62.361328 L 415.74805 62.361328 L 415.74805 66.142578 L 510.23633 66.142578 L 510.23633 141.73242 L 504.56641 141.73242 L 504.56641 71.810547 L 421.41797 71.810547 L 421.41797 170.07812 L 425.19727 170.07812 L 425.19727 81.259766 L 425.19727 75.589844 L 500.78711 75.589844 L 500.78711 81.259766 L 430.86523 81.259766 L 430.86523 164.41016 L 529.13477 164.41016 L 529.13477 160.63086 L 440.31445 160.63086 L 434.64648 160.63086 L 434.64648 85.039062 L 440.31445 85.039062 L 440.31445 154.96094 L 523.46484 154.96094 L 523.46484 56.693359 L 519.68555 56.693359 z M 453.54297 170.07812 L 453.54297 170.08008 L 529.13477 170.08008 L 529.13477 170.07812 L 453.54297 170.07812 z "
       transform="scale(0.26458333)" />
    <path
       id="use1994"
       style="opacity:1;fill:#ff0000;fill-opacity:1;stroke:none;stroke-width:0.37795;stroke-linejoin:round;stroke-miterlimit:4;stroke-dasharray:none;stop-opacity:1"
       d="M 160.82031 321.44922 L 160.82031 415.9375 L 155.15039 415.9375 L 155.15039 327.11719 L 56.882812 327.11719 L 56.882812 330.89844 L 151.37109 330.89844 L 151.37109 336.56641 L 62.552734 336.56641 L 62.552734 434.83398 L 66.332031 434.83398 L 66.332031 340.3457 L 72 340.3457 L 72 429.16602 L 170.26758 429.16602 L 170.26758 425.38672 L 164.59961 425.38672 L 75.78125 425.38672 L 75.78125 419.7168 L 164.59961 419.7168 L 164.59961 321.44922 L 160.82031 321.44922 z M 104.03125 363.02539 A 5.669291 5.669291 0 0 1 104.12695 363.02539 A 5.669291 5.669291 0 0 1 109.79492 368.69336 A 5.669291 5.669291 0 0 1 104.12695 374.36328 A 5.669291 5.669291 0 0 1 98.457031 368.69336 A 5.669291 5.669291 0 0 1 104.03125 363.02539 z M 122.92773 363.02539 A 5.669291 5.669291 0 0 1 123.02344 363.02539 A 5.669291 5.669291 0 0 1 128.69336 368.69336 A 5.669291 5.669291 0 0 1 123.02344 374.36328 A 5.669291 5.669291 0 0 1 117.35547 368.69336 A 5.669291 5.669291 0 0 1 122.92773 363.02539 z M 104.0293 381.92188 A 5.669291 5.669291 0 0 1 104.12695 381.92188 A 5.669291 5.669291 0 0 1 109.79492 387.5918 A 5.669291 5.669291 0 0 1 104.12695 393.26172 A 5.669291 5.669291 0 0 1 98.457031 387.5918 A 5.669291 5.669291 0 0 1 104.0293 381.92188 z M 122.92773 381.92188 A 5.669291 5.669291 0 0 1 123.02344 381.92188 A 5.669291 5.669291 0 0 1 128.69336 387.5918 A 5.669291 5.669291 0 0 1 123.02344 393.26172 A 5.669291 5.669291 0 0 1 117.35547 387.5918 A 5.669291 5.669291 0 0 1 122.92773 381.92188 z "
       transform="scale(0.26458333)" />
    <path
       id="use2000"
       style="opacity:1;fill:#ff0000;fill-opacity:1;stroke:none;stroke-width:0.37795;stroke-linejoin:round;stroke-miterlimit:4;stroke-dasharray:none;stop-opacity:1"
       d="M 519.875 321.44922 L 519.875 327.11719 L 519.875 410.26758 L 519.875 415.9375 L 444.2832 415.9375 L 444.2832 410.26758 L 514.20508 410.26758 L 514.20508 327.11719 L 415.9375 327.11719 L 415.9375 330.89844 L 510.42578 330.89844 L 510.42578 406.48828 L 504.75586 406.48828 L 504.75586 336.56641 L 421.60742 336.56641 L 421.60742 434.83398 L 425.38672 434.83398 L 425.38672 346.01562 L 425.38672 340.3457 L 500.97656 340.3457 L 500.97656 346.01562 L 431.05469 346.01562 L 431.05469 429.16602 L 529.32422 429.16602 L 529.32422 425.38672 L 440.50391 425.38672 L 434.83594 425.38672 L 434.83594 349.79492 L 440.50391 349.79492 L 440.50391 419.7168 L 523.6543 419.7168 L 523.6543 321.44922 L 519.875 321.44922 z M 463.08398 363.02344 A 5.669291 5.669291 0 0 1 463.18164 363.02344 A 5.669291 5.669291 0 0 1 468.85156 368.69336 A 5.669291 5.669291 0 0 1 463.18164 374.36328 A 5.669291 5.669291 0 0 1 457.51172 368.69336 A 5.669291 5.669291 0 0 1 463.08398 363.02344 z M 481.98242 363.02344 A 5.669291 5.669291 0 0 1 482.08008 363.02344 A 5.669291 5.669291 0 0 1 487.74805 368.69336 A 5.669291 5.669291 0 0 1 482.08008 374.36328 A 5.669291 5.669291 0 0 1 476.41016 368.69336 A 5.669291 5.669291 0 0 1 481.98242 363.02344 z M 463.08398 381.92188 A 5.669291 5.669291 0 0 1 463.08594 381.92188 A 5.669291 5.669291 0 0 1 463.18164 381.92188 A 5.669291 5.669291 0 0 1 468.85156 387.5918 A 5.669291 5.669291 0 0 1 463.18164 393.25977 A 5.669291 5.669291 0 0 1 457.51172 387.5918 A 5.669291 5.669291 0 0 1 463.08398 381.92188 z M 481.98242 381.92188 A 5.669291 5.669291 0 0 1 481.98438 381.92188 A 5.669291 5.669291 0 0 1 482.08008 381.92188 A 5.669291 5.669291 0 0 1 487.74805 387.5918 A 5.669291 5.669291 0 0 1 482.08008 393.25977 A 5.669291 5.669291 0 0 1 476.41016 387.5918 A 5.669291 5.669291 0 0 1 481.98242 381.92188 z M 453.73242 434.83398 L 453.73242 434.83594 L 529.32422 434.83594 L 529.32422 434.83398 L 453.73242 434.83398 z "
       transform="scale(0.26458333)" />
    <path
       inkscape:connector-curvature="0"
       id="path1752"
       d="m 105.21181,174.99545 v -19.8314 h 19.78463 19.78462 v 19.8314 19.8314 h -13.33007 -13.33006 v -2.43037 -2.43037 l -0.21048,-0.0514 c -0.11576,-0.0283 -1.38913,-0.0396 -2.82971,-0.0252 l -2.61924,0.0262 -0.0249,2.45554 -0.0249,2.45554 h -3.5999 -3.59991 z m 4.16891,17.82152 c 1.38443,-0.81133 0.76976,-2.94797 -0.84808,-2.94797 -1.19174,0 -1.96848,1.22068 -1.45357,2.28434 0.41267,0.85246 1.46278,1.15524 2.30165,0.66363 z m 32.9144,0.0205 c 0.43163,-0.24562 0.80214,-0.8754 0.80214,-1.36342 0,-1.1972 -1.37604,-2.00031 -2.42102,-1.413 -0.79012,0.44407 -1.06153,1.49541 -0.58507,2.26634 0.43235,0.69956 1.45504,0.93625 2.20395,0.51008 z m -14.52629,-1.90373 c 2.07599,-0.35383 4.46944,-1.31642 6.25463,-2.51547 1.17698,-0.79053 2.43216,-1.87985 2.43216,-2.11078 0,-0.0992 -0.0438,-0.18029 -0.0974,-0.18029 -0.0536,0 -1.07438,0.50043 -2.26845,1.11206 l -2.17104,1.11205 -2.30552,0.34375 -2.30552,0.34375 -2.32278,-0.44148 -2.32277,-0.44147 -1.62145,-0.88857 -1.62145,-0.88858 -1.2338,-1.30307 c -1.22008,-1.28858 -1.24239,-1.32003 -2.00517,-2.82677 l -0.77136,-1.5237 -0.26685,-1.71084 -0.26685,-1.71084 0.61627,-2.28142 0.61627,-2.28143 1.91865,-1.84994 c 1.05526,-1.01747 2.12913,-2.01089 2.38637,-2.20759 0.91177,-0.69717 2.84554,-1.44973 3.73335,-1.45289 0.51053,-0.002 0.99064,-0.11371 0.99064,-0.23086 0,-0.14148 -1.38915,-0.23584 -3.47208,-0.23584 h -1.47854 l -1.99143,1.13681 c -1.09529,0.62525 -2.08464,1.2251 -2.19856,1.33301 -0.11393,0.10791 -0.65193,0.80571 -1.19556,1.55066 l -0.98842,1.35447 -0.5584,1.74337 -0.5584,1.74337 v 1.84427 1.84427 l 0.48784,1.69954 0.48784,1.69954 1.37038,2.03852 1.37038,2.03852 1.48599,1.09644 c 0.81729,0.60304 1.70475,1.25569 1.97212,1.45033 0.38307,0.27885 0.96817,0.51225 2.75956,1.10079 l 2.27342,0.74691 0.99506,-0.0507 c 0.54728,-0.0279 1.38918,-0.11784 1.87088,-0.19994 z m 3.21444,-4.10598 1.77734,-0.51397 2.02208,-1.36571 2.02208,-1.36572 1.44963,-1.97824 1.44963,-1.97825 0.72611,-2.24507 0.72612,-2.24506 -0.0553,-1.21607 c -0.1564,-3.4386 -1.54815,-6.80738 -3.97831,-9.62961 -0.66325,-0.77026 -0.94766,-0.96626 -0.94766,-0.65309 0,0.0811 0.48619,1.10978 1.08042,2.28591 l 1.08041,2.1384 0.32741,2.13407 c 0.18007,1.17373 0.32856,2.28139 0.32998,2.46147 0.001,0.18007 -0.18742,1.30814 -0.41963,2.50682 l -0.42219,2.17941 -0.86999,1.58572 c -0.85884,1.5654 -0.88559,1.60121 -2.08734,2.79378 l -1.21736,1.20806 -1.63703,0.84039 -1.63702,0.84038 -1.70338,0.25584 -1.70337,0.25583 -1.80454,-0.48625 c -0.99249,-0.26744 -2.02349,-0.54903 -2.29109,-0.62577 -0.45371,-0.1301 -0.61789,-0.27649 -2.43238,-2.1688 -1.0702,-1.1161 -2.11083,-2.27886 -2.31251,-2.5839 -0.68938,-1.04273 -1.12909,-2.33414 -1.25041,-3.67239 -0.0506,-0.55782 -0.0995,-0.73083 -0.20657,-0.73083 -0.12062,0 -0.14381,0.35245 -0.16524,2.51109 l -0.0249,2.51109 1.18436,2.07258 1.18437,2.07259 1.45982,1.06996 1.45979,1.06997 1.54349,0.50285 c 0.84891,0.27657 1.71185,0.53766 1.91765,0.5802 0.2058,0.0425 1.11084,0.0816 2.01121,0.0868 l 1.63702,0.01 z m -17.16612,-0.49008 c -5.3e-4,-0.09 -0.48362,-1.11084 -1.07381,-2.26845 l -1.07306,-2.10475 -0.35577,-2.33489 -0.35577,-2.3349 0.4451,-2.32705 0.4451,-2.32705 0.86754,-1.56238 0.86755,-1.56238 1.30962,-1.26692 c 1.30572,-1.26313 1.31422,-1.26929 2.8531,-2.06386 l 1.54348,-0.79695 1.73057,-0.25442 1.73057,-0.25441 2.10475,0.57083 c 1.15761,0.31396 2.17608,0.59268 2.26327,0.61938 0.24915,0.0763 4.00974,4.04538 4.41811,4.66304 0.68938,1.04273 1.12909,2.33414 1.25041,3.67239 0.0506,0.55782 0.0995,0.73083 0.20656,0.73083 0.12003,0 0.14709,-0.35858 0.18709,-2.47892 l 0.0468,-2.47893 -1.20809,-2.10475 -1.20808,-2.10474 -1.45731,-1.07114 -1.4573,-1.07113 -1.64116,-0.5272 -1.64116,-0.52719 -1.91414,-0.0563 -1.91415,-0.0563 -1.82411,0.53967 -1.82412,0.53967 -1.97428,1.34827 -1.97429,1.34827 -1.44704,1.96494 -1.44704,1.96493 -0.73104,2.28173 -0.73105,2.28174 0.0529,1.13263 c 0.16015,3.42558 1.56968,6.83668 3.98331,9.63971 0.67351,0.78218 0.94841,0.96707 0.94692,0.63689 z m 18.09711,-4.30959 2.09863,-1.19924 1.0835,-1.46974 1.0835,-1.46975 0.55812,-1.75099 0.55811,-1.75098 -7e-5,-1.87089 -8e-5,-1.87089 -0.5032,-1.73057 -0.50319,-1.73056 -1.36067,-1.99805 -1.36067,-1.99804 -1.71343,-1.26478 c -0.94239,-0.69563 -1.86077,-1.36017 -2.04084,-1.47677 -0.18007,-0.11659 -1.3557,-0.53691 -2.61251,-0.93405 l -2.28511,-0.72206 -0.84863,0.0634 c -3.10736,0.23206 -5.62911,1.0875 -8.10783,2.75034 -1.54273,1.03494 -2.80021,2.2592 -2.3205,2.2592 0.0633,0 1.06602,-0.49153 2.22819,-1.09228 l 2.11303,-1.09229 2.33861,-0.36058 2.33861,-0.36057 2.33861,0.44009 2.3386,0.44009 1.62702,0.89584 1.62701,0.89584 1.22566,1.29492 c 1.20249,1.27045 1.24027,1.32349 1.99917,2.80633 l 0.77353,1.51141 0.26963,1.73057 0.26964,1.73057 -0.61944,2.28087 -0.61944,2.28087 -1.94206,1.87394 c -1.06814,1.03067 -2.14261,2.01792 -2.38772,2.1939 -1.07787,0.77383 -2.37966,1.26458 -3.826,1.44233 -0.59055,0.0726 -0.87592,0.14645 -0.87592,0.22675 0,0.17391 0.28089,0.19557 2.737,0.21106 l 2.22251,0.014 z m -22.53354,-22.13873 c 1.38443,-0.81133 0.76976,-2.94797 -0.84808,-2.94797 -1.19174,0 -1.96848,1.22068 -1.45357,2.28435 0.41267,0.85246 1.46278,1.15523 2.30165,0.66362 z m 32.9144,0.0205 c 0.43163,-0.24563 0.80214,-0.8754 0.80214,-1.36342 0,-1.1972 -1.37604,-2.00031 -2.42102,-1.413 -0.79012,0.44407 -1.06153,1.49541 -0.58507,2.26633 0.43235,0.69957 1.45504,0.93626 2.20395,0.51009 z"
       style="display:inline;fill:none;stroke-width:0.1;stroke-miterlimit:4;stroke-dasharray:none" />
    <path
       inkscape:connector-curvature="0"
       id="path1754"
       d="m 105.21181,174.99545 v -19.8314 h 19.78463 19.78462 v 19.8314 19.8314 h -13.33007 -13.33006 v -2.43037 -2.43037 l -0.21048,-0.0514 c -0.11576,-0.0283 -1.38913,-0.0396 -2.82971,-0.0252 l -2.61924,0.0262 -0.0249,2.45554 -0.0249,2.45554 h -3.5999 -3.59991 z m 4.16891,17.82152 c 1.38443,-0.81133 0.76976,-2.94797 -0.84808,-2.94797 -1.19174,0 -1.96848,1.22068 -1.45357,2.28434 0.41267,0.85246 1.46278,1.15524 2.30165,0.66363 z m 32.9144,0.0205 c 0.43163,-0.24562 0.80214,-0.8754 0.80214,-1.36342 0,-1.1972 -1.37604,-2.00031 -2.42102,-1.413 -0.79012,0.44407 -1.06153,1.49541 -0.58507,2.26634 0.43235,0.69956 1.45504,0.93625 2.20395,0.51008 z m -14.52629,-1.90373 c 2.07599,-0.35383 4.46944,-1.31642 6.25463,-2.51547 1.17698,-0.79053 2.43216,-1.87985 2.43216,-2.11078 0,-0.0992 -0.0438,-0.18029 -0.0974,-0.18029 -0.0536,0 -1.07438,0.50043 -2.26845,1.11206 l -2.17104,1.11205 -2.30552,0.34375 -2.30552,0.34375 -2.32278,-0.44148 -2.32277,-0.44147 -1.62145,-0.88857 -1.62145,-0.88858 -1.2338,-1.30307 c -1.22008,-1.28858 -1.24239,-1.32003 -2.00517,-2.82677 l -0.77136,-1.5237 -0.26685,-1.71084 -0.26685,-1.71084 0.61627,-2.28142 0.61627,-2.28143 1.91865,-1.84994 c 1.05526,-1.01747 2.12913,-2.01089 2.38637,-2.20759 0.91177,-0.69717 2.84554,-1.44973 3.73335,-1.45289 0.51053,-0.002 0.99064,-0.11371 0.99064,-0.23086 0,-0.14148 -1.38915,-0.23584 -3.47208,-0.23584 h -1.47854 l -1.99143,1.13681 c -1.09529,0.62525 -2.08464,1.2251 -2.19856,1.33301 -0.11393,0.10791 -0.65193,0.80571 -1.19556,1.55066 l -0.98842,1.35447 -0.5584,1.74337 -0.5584,1.74337 v 1.84427 1.84427 l 0.48784,1.69954 0.48784,1.69954 1.37038,2.03852 1.37038,2.03852 1.48599,1.09644 c 0.81729,0.60304 1.70475,1.25569 1.97212,1.45033 0.38307,0.27885 0.96817,0.51225 2.75956,1.10079 l 2.27342,0.74691 0.99506,-0.0507 c 0.54728,-0.0279 1.38918,-0.11784 1.87088,-0.19994 z m 3.21444,-4.10598 1.77734,-0.51397 2.02208,-1.36571 2.02208,-1.36572 1.44963,-1.97824 1.44963,-1.97825 0.72611,-2.24507 0.72612,-2.24506 -0.0553,-1.21607 c -0.1564,-3.4386 -1.54815,-6.80738 -3.97831,-9.62961 -0.66325,-0.77026 -0.94766,-0.96626 -0.94766,-0.65309 0,0.0811 0.48619,1.10978 1.08042,2.28591 l 1.08041,2.1384 0.32741,2.13407 c 0.18007,1.17373 0.32856,2.28139 0.32998,2.46147 0.001,0.18007 -0.18742,1.30814 -0.41963,2.50682 l -0.42219,2.17941 -0.86999,1.58572 c -0.85884,1.5654 -0.88559,1.60121 -2.08734,2.79378 l -1.21736,1.20806 -1.63703,0.84039 -1.63702,0.84038 -1.70338,0.25584 -1.70337,0.25583 -1.80454,-0.48625 c -0.99249,-0.26744 -2.02349,-0.54903 -2.29109,-0.62577 -0.45371,-0.1301 -0.61789,-0.27649 -2.43238,-2.1688 -1.0702,-1.1161 -2.11083,-2.27886 -2.31251,-2.5839 -0.68938,-1.04273 -1.12909,-2.33414 -1.25041,-3.67239 -0.0506,-0.55782 -0.0995,-0.73083 -0.20657,-0.73083 -0.12062,0 -0.14381,0.35245 -0.16524,2.51109 l -0.0249,2.51109 1.18436,2.07258 1.18437,2.07259 1.45982,1.06996 1.45979,1.06997 1.54349,0.50285 c 0.84891,0.27657 1.71185,0.53766 1.91765,0.5802 0.2058,0.0425 1.11084,0.0816 2.01121,0.0868 l 1.63702,0.01 z m -17.16612,-0.49008 c -5.3e-4,-0.09 -0.48362,-1.11084 -1.07381,-2.26845 l -1.07306,-2.10475 -0.35577,-2.33489 -0.35577,-2.3349 0.4451,-2.32705 0.4451,-2.32705 0.86754,-1.56238 0.86755,-1.56238 1.30962,-1.26692 c 1.30572,-1.26313 1.31422,-1.26929 2.8531,-2.06386 l 1.54348,-0.79695 1.73057,-0.25442 1.73057,-0.25441 2.10475,0.57083 c 1.15761,0.31396 2.17608,0.59268 2.26327,0.61938 0.24915,0.0763 4.00974,4.04538 4.41811,4.66304 0.68938,1.04273 1.12909,2.33414 1.25041,3.67239 0.0506,0.55782 0.0995,0.73083 0.20656,0.73083 0.12003,0 0.14709,-0.35858 0.18709,-2.47892 l 0.0468,-2.47893 -1.20809,-2.10475 -1.20808,-2.10474 -1.45731,-1.07114 -1.4573,-1.07113 -1.64116,-0.5272 -1.64116,-0.52719 -1.91414,-0.0563 -1.91415,-0.0563 -1.82411,0.53967 -1.82412,0.53967 -1.97428,1.34827 -1.97429,1.34827 -1.44704,1.96494 -1.44704,1.96493 -0.73104,2.28173 -0.73105,2.28174 0.0529,1.13263 c 0.16015,3.42558 1.56968,6.83668 3.98331,9.63971 0.67351,0.78218 0.94841,0.96707 0.94692,0.63689 z m 18.09711,-4.30959 2.09863,-1.19924 1.0835,-1.46974 1.0835,-1.46975 0.55812,-1.75099 0.55811,-1.75098 -7e-5,-1.87089 -8e-5,-1.87089 -0.5032,-1.73057 -0.50319,-1.73056 -1.36067,-1.99805 -1.36067,-1.99804 -1.71343,-1.26478 c -0.94239,-0.69563 -1.86077,-1.36017 -2.04084,-1.47677 -0.18007,-0.11659 -1.3557,-0.53691 -2.61251,-0.93405 l -2.28511,-0.72206 -0.84863,0.0634 c -3.10736,0.23206 -5.62911,1.0875 -8.10783,2.75034 -1.54273,1.03494 -2.80021,2.2592 -2.3205,2.2592 0.0633,0 1.06602,-0.49153 2.22819,-1.09228 l 2.11303,-1.09229 2.33861,-0.36058 2.33861,-0.36057 2.33861,0.44009 2.3386,0.44009 1.62702,0.89584 1.62701,0.89584 1.22566,1.29492 c 1.20249,1.27045 1.24027,1.32349 1.99917,2.80633 l 0.77353,1.51141 0.26963,1.73057 0.26964,1.73057 -0.61944,2.28087 -0.61944,2.28087 -1.94206,1.87394 c -1.06814,1.03067 -2.14261,2.01792 -2.38772,2.1939 -1.07787,0.77383 -2.37966,1.26458 -3.826,1.44233 -0.59055,0.0726 -0.87592,0.14645 -0.87592,0.22675 0,0.17391 0.28089,0.19557 2.737,0.21106 l 2.22251,0.014 z m -22.53354,-22.13873 c 1.38443,-0.81133 0.76976,-2.94797 -0.84808,-2.94797 -1.19174,0 -1.96848,1.22068 -1.45357,2.28435 0.41267,0.85246 1.46278,1.15523 2.30165,0.66362 z m 32.9144,0.0205 c 0.43163,-0.24563 0.80214,-0.8754 0.80214,-1.36342 0,-1.1972 -1.37604,-2.00031 -2.42102,-1.413 -0.79012,0.44407 -1.06153,1.49541 -0.58507,2.26633 0.43235,0.69957 1.45504,0.93626 2.20395,0.51009 z"
       style="display:inline;fill:none;stroke-width:0.1;stroke-miterlimit:4;stroke-dasharray:none" />
    <g
       style="display:inline;fill:none;stroke:none;stroke-width:0.1;stroke-miterlimit:4;stroke-dasharray:none"
       id="g391"
       transform="translate(100.56278,106.81446)">
      <path
         style="fill:none;stroke:none;stroke-width:0.377953;stroke-miterlimit:4;stroke-dasharray:none"
         d="m 127.26584,323.43758 v -8.6869 l 1.59099,-0.15026 c 0.87504,-0.0826 2.55587,-0.15101 3.73517,-0.15193 3.36885,-0.003 3.15912,0.50446 3.15912,-7.63812 0,-5.65916 -0.055,-6.77731 -0.339,-6.88628 -0.18645,-0.0716 -4.02806,1.75455 -8.5369,4.05799 l -8.19791,4.18808 -8.80643,1.32834 -8.80643,1.32834 -8.878543,-1.69829 -8.878544,-1.69829 -5.656854,-3.11647 -5.656854,-3.11646 -4.875263,-4.8481 -4.875265,-4.84809 -3.089726,-5.97926 -3.089726,-5.97926 -1.010276,-6.59663 -1.010275,-6.59663 2.315169,-8.53711 c 1.273343,-4.69541 2.315847,-8.55308 2.316676,-8.57261 8.25e-4,-0.0195 3.327357,-3.26759 7.392283,-7.21793 4.064925,-3.95035 8.174984,-7.73601 9.133462,-8.41258 4.489157,-3.16883 9.786167,-5.06587 15.059866,-5.39346 2.441734,-0.15168 2.474874,-0.16163 2.474874,-0.74299 v -0.58926 l -9.276805,-0.11785 -9.276805,-0.11785 -7.971224,4.59619 -7.971225,4.5962 -4.059696,5.539 -4.059697,5.539 -2.085723,6.55466 -2.085724,6.55466 v 7.06848 7.06847 l 1.900828,6.51126 1.900828,6.51125 5.145105,7.56063 5.145105,7.56063 4.145342,3.04907 c 2.279939,1.67698 4.099569,3.09484 4.043623,3.15078 -0.05595,0.0559 -4.169035,-1.83349 -9.140198,-4.19875 l -9.03848,-4.30048 -4.161077,-8.2784 -4.161078,-8.27841 -1.238064,-8.53885 -1.238064,-8.53884 1.667608,-8.78527 1.667609,-8.78527 3.271447,-5.96545 3.271447,-5.96546 4.949747,-4.7697 4.949748,-4.76969 5.778776,-2.96971 5.778776,-2.9697 6.576083,-0.99855 6.576081,-0.99855 8.558807,2.30875 8.558806,2.30875 7.01705,7.21222 c 3.85938,3.96672 7.57582,7.95332 8.25876,8.85912 1.60849,2.13339 3.89097,6.74441 4.63932,9.37228 0.32398,1.13769 0.70374,2.99384 0.84391,4.12479 0.61136,4.93284 0.54706,4.64899 1.05324,4.64899 0.46083,0 0.47489,-0.20891 0.62672,-9.31024 l 0.15532,-9.31024 -4.59921,-8.01387 -4.59921,-8.01388 -5.3086,-3.88909 c -2.91972,-2.139 -5.46594,-3.98042 -5.65826,-4.09206 -0.19231,-0.11163 -3.309812,-1.14578 -6.927771,-2.29809 l -6.578111,-2.09513 -6.77211,6.6e-4 -6.772112,6.6e-4 -6.717515,1.96099 -6.717514,1.96099 -7.542473,5.15132 -7.542472,5.15133 -3.166117,4.31481 c -1.741365,2.37315 -3.19865,4.28228 -3.238412,4.24252 -0.03976,-0.0398 1.91532,-4.23784 4.344628,-9.32906 l 4.416924,-9.25678 8.013877,-4.08487 8.013876,-4.08488 8.798787,-1.32712 8.798784,-1.32713 8.751003,1.66766 8.750998,1.66766 5.78474,3.16889 5.78474,3.16888 4.97341,5.01748 4.97341,5.01747 2.97072,5.79808 2.97073,5.79807 0.95362,6.21601 c 0.5245,3.41881 0.95363,6.47851 0.95363,6.79933 0,0.32083 -1.01125,4.32314 -2.24721,8.89402 l -2.2472,8.31069 -5.23634,5.15085 c -7.80527,7.67783 -9.82305,9.53952 -11.74497,10.83642 -4.55974,3.07688 -9.40609,4.73611 -15.175985,5.19575 -1.907856,0.15198 -2.12132,0.21642 -2.12132,0.64039 0,0.44848 0.206253,0.47856 4.24264,0.61876 2.333453,0.0811 6.576095,0.15544 9.428095,0.16533 l 5.18545,0.018 7.88903,-4.54356 7.88903,-4.54355 2.32559,-3.16425 c 1.27908,-1.74033 3.11813,-4.24724 4.08677,-5.57091 l 1.76117,-2.40667 2.11955,-6.66101 2.11955,-6.661 -0.085,-7.31363 -0.085,-7.31363 -1.88427,-6.24611 -1.88428,-6.24611 -4.9029,-7.18892 c -2.69659,-3.9539 -5.07233,-7.38006 -5.27941,-7.61368 -0.20708,-0.23363 -2.20773,-1.76624 -4.44588,-3.40581 -2.23815,-1.63958 -4.03094,-3.01947 -3.98398,-3.06643 0.047,-0.047 4.19482,1.86925 9.21745,4.25825 l 9.13208,4.34362 4.0853,7.97966 4.0853,7.97966 1.3374,8.85223 1.3374,8.85222 -1.67469,8.77678 -1.6747,8.77678 -3.11711,5.71226 -3.11711,5.71226 -4.81898,4.86968 -4.81898,4.86967 -6.03887,3.12062 -6.03888,3.12062 -6.59017,1.01064 -6.59017,1.01063 -8.548043,-2.31721 -8.54804,-2.31722 -5.969548,-6.09445 c -7.635167,-7.79494 -8.558693,-8.80525 -9.996152,-10.93553 -3.048229,-4.5174 -4.737222,-9.43974 -5.156916,-15.02913 -0.154351,-2.05565 -0.195783,-2.18809 -0.663598,-2.12132 -0.494599,0.0706 -0.50068,0.152 -0.694521,9.29823 l -0.195553,9.22703 4.569582,7.97924 4.569581,7.97923 5.643318,4.14285 5.643318,4.14285 6.481812,2.05051 6.481812,2.05052 7.188918,-0.0107 7.18892,-0.0106 6.40932,-1.85937 6.40931,-1.85937 7.61497,-5.19393 7.61497,-5.19394 4.67606,-6.37725 c 2.57183,-3.50748 4.71966,-6.37725 4.77297,-6.37725 0.0533,0 0.0969,12.3567 0.0969,27.45932 v 27.45931 h -9.66379 -9.66379 z"
         id="path1964"
         inkscape:connector-curvature="0"
         transform="scale(0.26458333)" />
      <g
         style="fill:none;stroke:none;stroke-width:0.1;stroke-miterlimit:4;stroke-dasharray:none"
         id="g247">
        <g
           style="fill:none;stroke:none;stroke-width:0.1;stroke-miterlimit:4;stroke-dasharray:none"
           id="g225">
          <path
             sodipodi:nodetypes="cccccccc"
             id="path209"
             style="fill:none;stroke:none;stroke-width:0.1;stroke-linecap:round;stroke-miterlimit:4;stroke-dasharray:none"
             d="m 10.314285,71.126127 0.797,-5.355399 1.73771,-3.157484 2.55813,-2.536719 3.19962,-1.652535 3.55762,-0.543639 4.063283,0.681628 3.32152,3.401854"
             inkscape:connector-curvature="0" />
          <path
             sodipodi:nodetypes="ccccc"
             id="path211"
             style="fill:none;stroke:none;stroke-width:0.1;stroke-linecap:round;stroke-miterlimit:4;stroke-dasharray:none"
             d="m 13.306835,75.900857 -1.00393,-3.461412 0.0151,-3.602593 1.09395,-3.43101 2.13121,-2.900019"
             inkscape:connector-curvature="0" />
          <path
             sodipodi:nodetypes="ccccccccc"
             id="path213"
             style="fill:none;stroke:none;stroke-width:0.1;stroke-linecap:round;stroke-miterlimit:4;stroke-dasharray:none"
             d="m 19.931524,54.299217 2.163522,-0.15572 4.756969,0.716114 3.15749,1.737696 2.53671,2.55815 1.65254,3.199606 0.54364,3.557614 -1.24647,4.608195 -2.942385,2.837124"
             inkscape:connector-curvature="0" />
          <path
             sodipodi:nodetypes="cccccc"
             id="path215"
             style="fill:none;stroke:none;stroke-width:0.1;stroke-linecap:round;stroke-miterlimit:4;stroke-dasharray:none"
             d="m 16.721885,57.055168 3.46143,-1.003935 3.60259,0.01508 3.431,1.093946 2.90002,2.131219 0.875022,1.523908"
             inkscape:connector-curvature="0" />
          <path
             sodipodi:nodetypes="ccccccccc"
             id="path217"
             style="fill:none;stroke:none;stroke-width:0.1;stroke-linecap:round;stroke-miterlimit:4;stroke-dasharray:none"
             d="m 38.319095,63.781261 c 0.157646,0.982869 0.08058,0.53479 0.111321,2.061126 l -0.667271,4.757966 -1.73771,3.157485 -2.55813,2.536692 -3.19962,1.652561 -3.55762,0.543613 -4.60818,-1.246452 -2.866943,-2.936282"
             inkscape:connector-curvature="0" />
          <path
             sodipodi:nodetypes="ccccc"
             id="path219"
             style="fill:none;stroke:none;stroke-width:0.1;stroke-linecap:round;stroke-miterlimit:4;stroke-dasharray:none"
             d="m 35.567595,60.470198 1.00393,3.461438 -0.0151,3.602593 -1.09395,3.430985 -2.13121,2.900045"
             inkscape:connector-curvature="0" />
          <path
             sodipodi:nodetypes="cccccccc"
             id="path221"
             style="fill:none;stroke:none;stroke-width:0.1;stroke-linecap:round;stroke-miterlimit:4;stroke-dasharray:none"
             d="m 26.731015,82.406247 -4.7086,-0.894795 -3.15749,-1.737704 -2.53671,-2.558124 -1.65255,-3.199606 -0.54363,-3.55764 1.24647,-4.608169 3.40186,-3.321526"
             inkscape:connector-curvature="0" />
          <path
             sodipodi:nodetypes="cccccc"
             id="path223"
             style="fill:none;stroke:none;stroke-width:0.1;stroke-linecap:round;stroke-miterlimit:4;stroke-dasharray:none"
             d="m 32.152545,79.315913 -3.46143,1.003935 -3.60259,-0.01508 -3.431,-1.093946 -2.90002,-2.131219 -0.965342,-1.623186"
             inkscape:connector-curvature="0" />
        </g>
        <path
           id="path233"
           style="display:inline;fill:none;stroke:none;stroke-width:0.1;stroke-linecap:round;stroke-miterlimit:4;stroke-dasharray:none"
           d="m 18.780365,62.528683 c 0.751566,-1.239979 -0.372891,-1.888101 -1.148447,-1.442779"
           inkscape:connector-curvature="0"
           sodipodi:nodetypes="cc" />
        <path
           style="fill:none;stroke:none;stroke-width:0.1;stroke-linecap:butt;stroke-linejoin:miter;stroke-miterlimit:4;stroke-dasharray:none;stroke-opacity:1"
           d="m 15.543165,62.505822 2.088753,-1.419918"
           id="path237"
           inkscape:connector-curvature="0" />
        <path
           sodipodi:nodetypes="cc"
           inkscape:connector-curvature="0"
           d="m 30.55354,73.357996 c -0.751566,1.239979 0.372891,1.888101 1.148447,1.442779"
           style="display:inline;fill:none;stroke:none;stroke-width:0.1;stroke-linecap:round;stroke-miterlimit:4;stroke-dasharray:none"
           id="path239" />
        <path
           style="fill:none;stroke:none;stroke-width:0.1;stroke-linecap:butt;stroke-linejoin:miter;stroke-miterlimit:4;stroke-dasharray:none;stroke-opacity:1"
           d="m 31.701986,74.800774 1.629277,-0.935516"
           id="path241"
           inkscape:connector-curvature="0" />
        <path
           id="path243"
           style="display:inline;fill:none;stroke:none;stroke-width:0.1;stroke-linecap:round;stroke-miterlimit:4;stroke-dasharray:none"
           d="m 19.234942,74.30797 c -1.239979,-0.751566 -1.888101,0.372891 -1.442779,1.148447"
           inkscape:connector-curvature="0"
           sodipodi:nodetypes="cc" />
        <path
           sodipodi:nodetypes="cc"
           inkscape:connector-curvature="0"
           d="m 29.549168,61.963833 c 1.239979,0.751566 1.888101,-0.372891 1.442779,-1.148447"
           style="display:inline;fill:none;stroke:none;stroke-width:0.1;stroke-linecap:round;stroke-miterlimit:4;stroke-dasharray:none"
           id="path245" />
      </g>
      <path
         style="fill:none;stroke:none;stroke-width:0.1;stroke-linecap:butt;stroke-linejoin:miter;stroke-miterlimit:4;stroke-dasharray:none;stroke-opacity:1"
         d="m 10.314286,71.126125 2.992549,4.774731"
         id="path249"
         inkscape:connector-curvature="0" />
      <path
         style="fill:none;stroke:none;stroke-width:0.1;stroke-linecap:butt;stroke-linejoin:miter;stroke-miterlimit:4;stroke-dasharray:none;stroke-opacity:1"
         d="m 16.721886,57.055168 3.209639,-2.755953"
         id="path251"
         inkscape:connector-curvature="0" />
      <path
         style="fill:none;stroke:none;stroke-width:0.1;stroke-linecap:butt;stroke-linejoin:miter;stroke-miterlimit:4;stroke-dasharray:none;stroke-opacity:1"
         d="m 35.567595,60.470198 2.7515,3.311062"
         id="path253"
         inkscape:connector-curvature="0" />
      <path
         style="fill:none;stroke:none;stroke-width:0.1;stroke-linecap:butt;stroke-linejoin:miter;stroke-miterlimit:4;stroke-dasharray:none;stroke-opacity:1"
         d="m 32.152544,79.315913 h 6.098494"
         id="path255"
         inkscape:connector-curvature="0" />
      <path
         style="fill:none;stroke:none;stroke-width:0.1;stroke-linecap:butt;stroke-linejoin:miter;stroke-miterlimit:4;stroke-dasharray:none;stroke-opacity:1"
         d="m 26.731015,82.406246 h 4.512794"
         id="path257"
         inkscape:connector-curvature="0" />
      <path
         style="fill:none;stroke:none;stroke-width:0.1;stroke-linecap:butt;stroke-linejoin:miter;stroke-miterlimit:4;stroke-dasharray:none;stroke-opacity:1"
         d="m 38.251037,79.315912 v 8.869627 h -5.905725 v -5.905317 l -1.101503,0.126024"
         id="path347"
         inkscape:connector-curvature="0" />
    </g>
    <path
       inkscape:connector-curvature="0"
       id="path393"
       d="m 133.0453,191.87509 v -2.98428 l -0.14882,0.0506 c -0.0819,0.0279 -1.38411,0.0634 -2.89388,0.079 l -2.74506,0.0284 -2.30925,-0.44027 -2.30926,-0.44027 -1.58515,-0.87129 -1.58514,-0.87128 -1.2319,-1.26521 -1.2319,-1.2652 -0.80578,-1.56266 -0.80578,-1.56266 -0.26627,-1.7362 -0.26627,-1.7362 0.60047,-2.24896 0.60047,-2.24896 1.77521,-1.75286 c 1.88639,-1.86264 1.91167,-1.89595 1.91263,-2.5203 7.9e-4,-0.49401 -0.48224,-0.91898 -1.04471,-0.91918 -0.3562,-1.3e-4 -0.42466,0.036 -1.68246,0.88833 l -1.03095,0.69859 -1.07601,1.46569 -1.07601,1.46569 -0.54413,1.69301 -0.54414,1.69301 -0.0189,1.91823 -0.0189,1.91823 0.28047,0.94904 c 0.15426,0.52198 0.27018,0.97993 0.2576,1.01767 -0.0126,0.0377 -0.51354,-0.71675 -1.11325,-1.67665 l -1.09038,-1.74527 0.38745,-2.61276 0.38745,-2.61276 0.85344,-1.55443 0.85343,-1.55442 1.27461,-1.26939 1.27461,-1.26939 1.55443,-0.80744 1.55442,-0.80743 1.62058,-0.25228 c 0.89131,-0.13876 1.72475,-0.25391 1.85208,-0.25589 0.12733,-0.002 1.09074,0.13819 2.14091,0.31152 l 1.9094,0.31514 1.68262,1.73234 c 1.51354,1.55826 1.71622,1.7435 2.01702,1.84341 0.82871,0.27526 1.48678,-0.18787 1.42669,-1.00407 -0.0201,-0.2736 -0.11973,-0.50729 -0.51629,-1.2115 l -0.49134,-0.87251 -1.42214,-1.04431 c -0.78217,-0.57437 -1.48166,-1.07543 -1.55442,-1.11346 -0.0728,-0.038 -0.88721,-0.31027 -1.80988,-0.60499 l -1.67758,-0.53585 h -1.84038 -1.84037 l -1.26795,0.36796 c -0.69737,0.20237 -1.28029,0.3556 -1.29539,0.34051 -0.0221,-0.0221 1.11769,-1.02226 2.25766,-1.98119 0.18401,-0.15477 0.27893,-0.17319 1.25679,-0.24392 l 1.05774,-0.0765 2.34818,0.36106 2.34818,0.36106 1.55442,0.86255 1.55443,0.86256 1.23502,1.24314 1.23502,1.24314 0.80806,1.55443 0.80807,1.55442 0.27672,1.77784 0.27672,1.77784 -0.60995,2.25706 -0.60995,2.25706 -1.49117,1.4552 c -0.82014,0.80037 -1.53748,1.55047 -1.5941,1.6669 -0.14376,0.29567 -0.13268,0.86319 0.0218,1.11652 0.16065,0.26344 0.50704,0.42466 0.91242,0.42466 0.281,0 0.44182,-0.0675 1.24677,-0.52334 0.50829,-0.28783 0.98584,-0.59293 1.06123,-0.67799 0.15815,-0.17845 1.87567,-2.52008 2.02983,-2.76742 0.0567,-0.0909 0.34395,-0.92439 0.63837,-1.85209 l 0.5353,-1.68671 -1.3e-4,-1.87192 -1.3e-4,-1.87193 -0.36837,-1.25993 c -0.2026,-0.69296 -0.35887,-1.26938 -0.34726,-1.28094 0.0427,-0.0425 2.1392,2.54699 2.18078,2.69354 0.0237,0.0834 0.0468,0.56831 0.0514,1.07763 0.007,0.76725 -0.0443,1.3117 -0.29888,3.175 l -0.30729,2.24896 -0.84948,1.55893 -0.84949,1.55892 -1.29599,1.28535 -1.29599,1.28534 -1.55806,0.80808 -1.55805,0.80807 -1.76222,0.26827 -1.76221,0.26828 -2.24896,-0.61421 -2.24896,-0.61422 -1.42213,-1.45939 c -0.88104,-0.90412 -1.52199,-1.5078 -1.68458,-1.58662 -0.3594,-0.17422 -0.93501,-0.17172 -1.17065,0.005 -0.2873,0.21557 -0.41515,0.49059 -0.41512,0.89297 3e-5,0.33928 0.0382,0.42738 0.5667,1.30662 l 0.56668,0.94281 1.47099,1.08027 1.471,1.08027 1.7215,0.54752 1.7215,0.54751 1.79513,0.033 1.79513,0.033 1.83851,-0.53658 1.83851,-0.53658 h 2.90745 2.90746 v 4.29948 4.29947 h -2.8112 -2.8112 v -2.98427 z"
       style="display:inline;fill:none;stroke-width:0.1;stroke-miterlimit:4;stroke-dasharray:none" />
    <path
       transform="scale(0.26458333)"
       d="M 159.5918 607.11133 L 159.41406 646.42383 C 159.24849 682.96222 159.20412 685.79589 158.80273 686.58789 C 157.64895 688.86615 154.07065 688.88201 152.89844 686.61523 C 152.55939 685.95949 152.51348 682.68551 152.51953 658.86719 L 152.52539 631.86328 L 121.71094 631.85156 C 104.76295 631.84552 90.405291 631.74494 89.804688 631.62891 C 88.160782 631.31135 87.216068 630.24527 87.091797 628.56641 C 87.01536 627.53354 87.110226 627.05298 87.513672 626.41016 C 88.534295 624.78409 87.065395 624.86133 116.38867 624.86133 L 143.02148 624.86133 L 143.02148 618.86133 L 143.02148 612.86133 L 101.27148 612.86133 L 59.521484 612.86133 L 59.521484 614.11133 L 59.521484 615.36133 L 98.529297 615.36133 C 141.46655 615.36133 138.76024 615.26111 139.76562 616.91016 C 140.37527 617.91011 140.42533 619.58789 139.87891 620.64453 C 139.64428 621.09826 139.0681 621.59235 138.44141 621.87695 C 137.43502 622.33465 136.38321 622.35364 110.58398 622.35742 L 83.771484 622.36523 L 83.771484 653.80273 C 83.771125 683.23373 83.743198 685.29489 83.333984 686.10938 C 82.023599 688.71754 78.519373 688.71754 77.208984 686.10938 C 76.800965 685.29734 76.771855 683.46152 76.771484 658.55273 L 76.771484 631.86523 L 70.771484 631.86523 L 64.771484 631.86523 L 64.771484 669.05273 C 64.771862 689.50587 64.847396 708.34964 64.9375 710.92773 L 65.099609 715.61523 L 67.265625 715.61523 L 67.330078 676.30273 C 67.395139 637.28444 67.399594 636.98366 67.904297 636.11523 C 69.271609 633.76225 72.573761 633.91134 73.833984 636.38281 C 74.241999 637.18313 74.271118 639.01862 74.271484 664.04688 L 74.271484 690.85547 L 106.08398 690.92188 C 142.12778 690.99795 139.08284 690.80967 140.06641 693.0332 C 140.64971 694.35188 140.5399 695.45519 139.72266 696.49414 C 138.59957 697.92201 139.82404 697.86328 110.6543 697.86328 L 83.771484 697.86328 L 83.771484 703.86328 L 83.771484 709.86328 L 121.89062 709.86328 C 164.29754 709.86328 161.44483 709.74818 162.54688 711.53125 C 163.35899 712.84527 163.06897 714.52336 162.09375 715.61523 L 167.52148 715.61523 L 167.52148 707.36133 L 128.38867 707.36133 C 95.796383 707.36133 89.121184 707.30489 88.451172 707.01953 C 85.664651 705.83219 85.562415 702.16286 88.277344 700.79883 C 89.089523 700.39155 90.937921 700.36159 116.08203 700.36133 L 143.01562 700.36133 L 143.08203 668.3418 L 143.14648 636.32227 L 144.06445 635.48242 C 145.25034 634.39566 146.47681 634.15346 147.79102 634.74609 C 148.33463 634.99123 149.00274 635.55299 149.27539 635.99414 C 149.76206 636.78104 149.77148 637.309 149.77148 663.82812 L 149.77148 690.86133 L 155.77148 690.86133 L 161.77148 690.86133 L 161.77148 648.98633 L 161.77148 607.11133 L 160.68164 607.11133 L 159.5918 607.11133 z "
       style="display:inline;fill:#ff0000;stroke-width:0.377953;stroke-miterlimit:4;stroke-dasharray:none"
       id="path1045" />
    <g
       id="g458"
       style="display:inline;fill:#ff0000;stroke:none;stroke-width:0.1;stroke-miterlimit:4;stroke-dasharray:none"
       transform="translate(100.56278,106.81446)">
      <path
         transform="matrix(0.26458333,0,0,0.26458333,-100.56278,-106.81446)"
         d="M 463.74805 608.9668 L 459.70703 609.25781 L 455.66797 609.54688 L 451.00781 613.54102 C 448.4445 615.73722 446.39722 617.58468 446.45898 617.64648 C 446.52075 617.70824 448.70794 617.13229 451.31836 616.36719 L 456.06445 614.97656 L 463.15625 614.98633 L 470.24805 614.99609 L 476.73828 617.08398 L 483.22852 619.17383 L 488.82031 623.26172 L 494.41211 627.35156 L 496.33008 630.72266 C 498.14104 633.90725 498.24805 634.17914 498.24805 635.61719 C 498.24805 636.89156 498.1356 637.28573 497.5625 638.03711 C 497.17123 638.55009 496.48817 639.06491 495.96875 639.23633 C 494.92842 639.57967 493.20594 639.41115 492.14648 638.86328 C 491.75147 638.65901 488.60351 635.58862 485.15234 632.04102 L 478.87891 625.5918 L 471.6875 624.4043 C 467.73294 623.75163 464.1043 623.22252 463.62305 623.22852 C 463.1418 623.23473 459.9918 623.67498 456.62305 624.20508 L 450.49805 625.16797 L 444.62305 628.21289 L 438.74805 631.25586 L 433.92773 636.05273 L 429.10742 640.85156 L 425.88281 646.72656 L 422.65625 652.60156 L 421.25586 662.10156 C 420.48506 667.32656 419.82999 671.7835 419.80078 672.00586 C 419.75268 672.37203 428.10874 686.0729 428.27734 685.9043 C 428.31672 685.86492 427.7837 683.92415 427.0918 681.5918 L 425.83398 677.35156 L 425.98047 670.375 L 426.125 663.39844 L 428.16406 657 L 430.20117 650.60156 L 434.24023 645.10156 L 438.2793 639.60156 L 442.62305 636.61328 C 446.72183 633.79471 447.04634 633.62081 448.35742 633.53711 C 450.73507 633.38533 452.62305 634.90402 452.62305 636.96875 C 452.62305 639.32695 452.26463 639.7956 445.28711 646.57617 L 438.74805 652.93164 L 436.44141 661.51562 L 434.13672 670.10156 L 435.14258 676.67969 L 436.14844 683.25977 L 439.19727 689.16211 L 442.24805 695.06641 L 446.91406 699.83398 L 451.58008 704.60156 L 457.55859 707.89453 L 463.53711 711.1875 L 472.26758 712.84961 L 480.99805 714.51172 L 491.37305 714.40625 C 497.0793 714.34837 502.00118 714.21463 502.31055 714.10938 L 502.84766 713.92578 L 502.84766 703.97656 L 502.20703 703.97656 L 495.22656 706.00586 L 488.24805 708.03711 L 481.37305 707.9082 L 474.49805 707.77734 L 467.99805 705.67383 L 461.49805 703.57031 L 455.97852 699.50586 L 450.45703 695.44141 L 448.375 691.91992 C 445.94703 687.81589 445.70656 686.83568 446.66992 684.99414 C 447.44197 683.51831 448.58176 682.90366 450.25195 683.06055 C 450.94129 683.12531 451.89754 683.3791 452.37695 683.625 C 452.85637 683.8709 455.6668 686.55077 458.62305 689.58008 L 463.99805 695.08789 L 472.49805 697.4082 L 480.99805 699.72656 L 487.61719 698.7168 L 494.23828 697.70703 L 500.11719 694.68945 L 505.99805 691.67383 L 510.91211 686.78711 L 515.82812 681.90234 L 519.00977 676.12695 L 522.19141 670.35156 L 523.4082 661.72852 C 524.61045 653.19914 524.91439 648.65157 524.4668 645.94531 C 524.35175 645.2497 523.36606 643.89146 520.2207 640.10156 C 517.96714 637.38621 516.12305 635.23898 516.12305 635.33008 C 516.12305 635.42117 516.7418 637.6544 517.49805 640.29297 L 518.87305 645.0918 L 518.86914 652.0957 L 518.86523 659.10156 L 516.77734 665.64844 L 514.68945 672.19727 L 511.80273 676.14844 C 506.08465 683.97729 506.92187 683.10752 502.88672 685.41406 C 499.55465 687.31872 499.1726 687.47536 497.88867 687.47461 C 495.49672 687.473 494.02635 686.06224 494.06055 683.79883 C 494.09335 681.62965 494.36691 681.26768 500.39648 675.41797 L 506.13477 669.85156 L 508.37305 661.60156 C 509.60405 657.06406 510.61705 653.07031 510.62305 652.72656 C 510.62877 652.38281 510.22279 649.34531 509.72266 645.97656 L 508.81445 639.85156 L 505.78125 633.86328 L 502.74805 627.87695 L 498.02539 623.05664 L 493.30469 618.23633 L 487.30664 614.94141 L 481.31055 611.64453 L 472.5293 610.30664 L 463.74805 608.9668 z M 502.87305 736.47461 L 502.87305 736.47656 L 513.49805 736.47656 L 524.12305 736.47656 L 524.12305 736.47461 L 502.87305 736.47461 z "
         style="fill:#ff0000;stroke:none;stroke-width:0.377953;stroke-miterlimit:4;stroke-dasharray:none"
         id="path456" />
    </g>
  </g>
  <g
     style="display:none"
     inkscape:label="F.Mask-auto"
     inkscape:groupmode="layer"
     id="g834" />
  <g
     style="display:none"
     inkscape:label="F.Silk-disabled"
     inkscape:groupmode="layer"
     id="g836" />
  <g
     style="display:none"
     inkscape:label="Drill"
     inkscape:groupmode="layer"
     id="g838" />
</svg>
