<?xml version="1.0" encoding="UTF-8" standalone="no"?>
<svg
   xmlns:dc="http://purl.org/dc/elements/1.1/"
   xmlns:cc="http://creativecommons.org/ns#"
   xmlns:rdf="http://www.w3.org/1999/02/22-rdf-syntax-ns#"
   xmlns:svg="http://www.w3.org/2000/svg"
   xmlns="http://www.w3.org/2000/svg"
   xmlns:sodipodi="http://sodipodi.sourceforge.net/DTD/sodipodi-0.dtd"
   xmlns:inkscape="http://www.inkscape.org/namespaces/inkscape"
   id="svg8"
   version="1.1"
   viewBox="0 0 200.0 200.0"
   height="200.0mm"
   width="200.0mm"
   inkscape:version="1.0.0 (32d4812, 2019-09-19)"
   sodipodi:docname="omems_fem.svg">
  <defs
     id="defs2" />
  <sodipodi:namedview
     id="base"
     pagecolor="#ffffff"
     bordercolor="#666666"
     borderopacity="1.0"
     inkscape:pageopacity="0.0"
     inkscape:pageshadow="2"
     inkscape:zoom="0.85592708"
     inkscape:cx="377.95276"
     inkscape:cy="377.95276"
     inkscape:document-units="mm"
     inkscape:current-layer="g856"
     inkscape:document-rotation="0"
     showgrid="true"
     inkscape:window-width="1440"
     inkscape:window-height="855"
     inkscape:window-x="0"
     inkscape:window-y="23"
     inkscape:window-maximized="0"
     borderlayer="true">
    <inkscape:grid
       id="grid834"
       units="mm"
       type="xygrid"
       empspacing="1"
       spacingy="0.99999999"
       spacingx="0.99999999" />
  </sodipodi:namedview>
  <metadata
     id="metadata5">
    <rdf:RDF>
      <cc:Work
         rdf:about="">
        <dc:format>image/svg+xml</dc:format>
        <dc:type
           rdf:resource="http://purl.org/dc/dcmitype/StillImage" />
        <dc:title></dc:title>
      </cc:Work>
    </rdf:RDF>
  </metadata>
  <g
     id="g840"
     sodipodi:insensitive="true"
     inkscape:groupmode="layer"
     inkscape:label="[fixed] BG">
    <rect
       id="rect838"
       style="fill:#FFFFFF;fill-opacity:1;stroke:none"
       height="200.0"
       width="200.0"
       y="0"
       x="0" />
  </g>
  <g
     id="g842"
     inkscape:groupmode="layer"
     inkscape:label="Edge.Cuts" />
  <g
     id="g844"
     inkscape:groupmode="layer"
     inkscape:label="B.Cu-disabled" />
  <g
     id="g846"
     inkscape:groupmode="layer"
     inkscape:label="B.Mask-disabled" />
  <g
     id="g848"
     inkscape:groupmode="layer"
     inkscape:label="B.Silk-disabled" />
  <g
     id="g850"
     inkscape:groupmode="layer"
     inkscape:label="F.Cu" />
  <g
     id="g852"
     inkscape:groupmode="layer"
     inkscape:label="F.Mask-disabled" />
  <g
     id="g854"
     inkscape:groupmode="layer"
     inkscape:label="F.Silk-disabled" />
  <g
     id="g856"
     inkscape:groupmode="layer"
     inkscape:label="Drill">
    <path
       id="rect870"
       style="fill:#ffffff;stroke:#000000;stroke-width:0.264582;stroke-miterlimit:4;stroke-dasharray:none;stroke-opacity:1;stop-color:#000000"
       d="M 30.265381,84.999999 V 98.990893 H 28.132693 V 88.901913 H 22.13306 v 10.08898 l -2.000207,1.01e-4 V 88.901921 h -6 v 10.089073 h -2 v 2.017816 h 4 V 90.919734 h 2 v 10.089076 l 6.000085,-2.3e-4 V 90.919604 h 1.999878 v 10.088976 h 4.132565 V 115 h 29.734618 v -13.99142 h 2.132687 v 10.08951 h 6.000149 v -10.08951 l 2.000017,2.3e-4 v 10.08907 h 6.000002 v -10.08907 h 1.999998 v -2.017816 h -4 V 109.08007 H 72.132851 V 98.990994 l -5.999893,-1.01e-4 V 109.07987 H 64.133079 V 98.990893 h -4.13308 V 84.999999 Z"
       inkscape:connector-curvature="0"
       sodipodi:nodetypes="ccccccccccccccccccccccccccccccccccccccccccccc" />
    <path
       sodipodi:nodetypes="ccccccccccccc"
       inkscape:connector-curvature="0"
       d="m 29.999999,29.999999 v 13.990894 c -6.12327,0.01348 -12.45843,0.0031 -18.132529,1.06e-4 v 2.01782 c 6.730949,-0.008 11.813099,0.0026 18.132529,1.8e-4 v 13.991 h 30 v -14 c 6.58004,-0.0307 11.90595,0.0263 17.86747,0.009 v -2.017815 c -6.11747,0.0102 -12.32264,0.01008 -17.86747,0.0086 v -14 z"
       style="fill:#ffffff;stroke:#000000;stroke-width:0.264582;stroke-miterlimit:4;stroke-dasharray:none;stroke-opacity:1;stop-color:#000000"
       id="path50" />
    <path
       sodipodi:nodetypes="ccccccccccccccccccccccccccccccccccccccccccccc"
       inkscape:connector-curvature="0"
       d="m 30.132528,140 v 13.99089 H 27.99984 V 143.90191 H 22.000207 L 22,164 h -2 l 0,-20.09808 h -6 v 10.08907 h -2 v 2.01782 h 4 v -10.08907 h 2 L 18,166 h 6 l 8.5e-5,-20.08039 h 1.999878 v 10.08897 h 4.132565 V 170 h 29.734618 v -13.99142 h 2.132687 v 10.08951 h 6.000149 L 67.999999,146 h 2 l 0,20.09789 h 6.000002 v -10.08908 h 1.999998 v -2.01782 h -4 v 10.08908 H 71.999998 L 71.999999,144 h -6 l 1.06e-4,20.07987 h -1.999879 v -10.08898 h -4.13308 V 140 Z"
       style="fill:#ffffff;stroke:#000000;stroke-width:0.264582;stroke-miterlimit:4;stroke-dasharray:none;stroke-opacity:1;stop-color:#000000"
       id="path54" />
  </g>
</svg>
